/* XPM */
static char *_509242397952[] = {
/* columns rows colors chars-per-pixel */
"64 64 256 2 ",
"   c black",
".  c #0000A8",
"X  c #00A800",
"o  c #00A8A8",
"O  c #A80000",
"+  c #A800A8",
"@  c #A85400",
"#  c gray66",
"$  c gray33",
"%  c #5454FC",
"&  c #54FC54",
"*  c #54FCFC",
"=  c #FC5454",
"-  c #FC54FC",
";  c #FCFC54",
":  c gray99",
">  c #ECECEC",
",  c gainsboro",
"<  c #D0D0D0",
"1  c #C0C0C0",
"2  c #B4B4B4",
"3  c gray66",
"4  c #989898",
"5  c gray55",
"6  c #7C7C7C",
"7  c gray44",
"8  c #646464",
"9  c gray33",
"0  c #484848",
"q  c gray22",
"w  c #2C2C2C",
"e  c #202020",
"r  c #FC0000",
"t  c #EC0000",
"y  c #E00000",
"u  c #D40000",
"i  c #C80000",
"p  c #BC0000",
"a  c #B00000",
"s  c #A40000",
"d  c #980000",
"f  c #880000",
"g  c #7C0000",
"h  c #700000",
"j  c #640000",
"k  c #580000",
"l  c #4C0000",
"z  c #400000",
"x  c #FCD8D8",
"c  c #FCB8B8",
"v  c #FC9C9C",
"b  c #FC7C7C",
"n  c #FC5C5C",
"m  c #FC4040",
"M  c #FC2020",
"N  c #FC0000",
"B  c #FCA85C",
"V  c #FC9840",
"C  c #FC8820",
"Z  c #FC7800",
"A  c #E46C00",
"S  c #CC6000",
"D  c #B45400",
"F  c #9C4C00",
"G  c #FCFCD8",
"H  c #FCFCB8",
"J  c #FCFC9C",
"K  c #FCFC7C",
"L  c #FCF85C",
"P  c #FCF440",
"I  c #FCF420",
"U  c #FCF400",
"Y  c #E4D800",
"T  c #CCC400",
"R  c #B4AC00",
"E  c #9C9C00",
"W  c #848400",
"Q  c #706C00",
"!  c #585400",
"~  c #404000",
"^  c #D0FC5C",
"/  c #C4FC40",
"(  c #B4FC20",
")  c #A0FC00",
"_  c #90E400",
"`  c #80CC00",
"'  c #74B400",
"]  c #609C00",
"[  c #D8FCD8",
"{  c #BCFCB8",
"}  c #9CFC9C",
"|  c #80FC7C",
" . c #60FC5C",
".. c #40FC40",
"X. c #20FC20",
"o. c #00FC00",
"O. c #00FC00",
"+. c #00EC00",
"@. c #00E000",
"#. c #00D400",
"$. c #04C800",
"%. c #04BC00",
"&. c #04B000",
"*. c #04A400",
"=. c #049800",
"-. c #048800",
";. c #047C00",
":. c #047000",
">. c #046400",
",. c #045800",
"<. c #044C00",
"1. c #044000",
"2. c #D8FCFC",
"3. c #B8FCFC",
"4. c #9CFCFC",
"5. c #7CFCF8",
"6. c #5CFCFC",
"7. c #40FCFC",
"8. c #20FCFC",
"9. c #00FCFC",
"0. c #00E4E4",
"q. c #00CCCC",
"w. c #00B4B4",
"e. c #009C9C",
"r. c #008484",
"t. c #007070",
"y. c #005858",
"u. c #004040",
"i. c #5CBCFC",
"p. c #40B0FC",
"a. c #20A8FC",
"s. c #009CFC",
"d. c #008CE4",
"f. c #007CCC",
"g. c #006CB4",
"h. c #005C9C",
"j. c #D8D8FC",
"k. c #B8BCFC",
"l. c #9C9CFC",
"z. c #7C80FC",
"x. c #5C60FC",
"c. c #4040FC",
"v. c #2024FC",
"b. c #0004FC",
"n. c #0000FC",
"m. c #0000EC",
"M. c #0000E0",
"N. c #0000D4",
"B. c #0000C8",
"V. c #0000BC",
"C. c #0000B0",
"Z. c #0000A4",
"A. c #000098",
"S. c #000088",
"D. c #00007C",
"F. c #000070",
"G. c #000064",
"H. c #000058",
"J. c #00004C",
"K. c #000040",
"L. c #282828",
"P. c #FCE034",
"I. c #FCD424",
"U. c #FCCC18",
"Y. c #FCC008",
"T. c #FCB400",
"R. c #B420FC",
"E. c #A800FC",
"W. c #9800E4",
"Q. c #8000CC",
"!. c #7400B4",
"~. c #60009C",
"^. c #500084",
"/. c #440070",
"(. c #340058",
"). c #280040",
"_. c #FCD8FC",
"`. c #FCB8FC",
"'. c #FC9CFC",
"]. c #FC7CFC",
"[. c #FC5CFC",
"{. c #FC40FC",
"}. c #FC20FC",
"|. c #FC00FC",
" X c #E000E4",
".X c #C800CC",
"XX c #B400B4",
"oX c #9C009C",
"OX c #840084",
"+X c #6C0070",
"@X c #580058",
"#X c #400040",
"$X c #FCE8DC",
"%X c #FCE0D0",
"&X c #FCD8C4",
"*X c #FCD4BC",
"=X c #FCCCB0",
"-X c #FCC4A4",
";X c #FCBC9C",
":X c #FCB890",
">X c #FCB080",
",X c #FCA470",
"<X c #FC9C60",
"1X c #F0945C",
"2X c #E88C58",
"3X c #DC8854",
"4X c #D08050",
"5X c #C87C4C",
"6X c #BC7848",
"7X c #B47044",
"8X c #A86840",
"9X c #A0643C",
"0X c #9C6038",
"qX c #905C34",
"wX c #885830",
"eX c #80502C",
"rX c #744C28",
"tX c #6C4824",
"yX c #5C4020",
"uX c #543C1C",
"iX c #483818",
"pX c #403018",
"aX c #382C14",
"sX c #28200C",
"dX c #600064",
"fX c #006464",
"gX c #006060",
"hX c #00001C",
"jX c #00002C",
"kX c #302410",
"lX c #480048",
"zX c #500050",
"xX c #000034",
"cX c gray11",
"vX c #4C4C4C",
"bX c gray36",
"nX c gray25",
"mX c gray19",
"MX c #343434",
"NX c #D8F4F4",
"BX c #B8E8E8",
"VX c #9CDCDC",
"CX c #74C8C8",
"ZX c #48C0C0",
"AX c #20B4B4",
"SX c #20B0B0",
"DX c #00A4A4",
"FX c #009898",
"GX c #008C8C",
"HX c #008484",
"JX c #007C7C",
"KX c #007878",
"LX c #007474",
"PX c #007070",
"IX c #006C6C",
"UX c #980088",
/* pixels */
"5 4 5 6 6 0 0 8 7 6 # # # 6 vXvX6 6 7 bX0 nX4 # 4 6 5 4 5 7 5 7 7 5 8 # # 6 6 1 6 6 6 # 7 bX0 6 8 6 6 8 mX0 6 # 5 5 4 7 7 7 7 5 ",
"5 6 5 5 6 mX8 1 # # # # # # 5 vXq vXvXnXuXvX7 6 6 6 6 6 7 5 7 7 w 0 4 5 5 4 # # # # # # # vXvX6 6 6 6 8 vXnXvX# 4 6 8 6 6 5 5 5 ",
"8 6 5 7 8 mX7 # # # # # 5 5 7 MXe nXq nX$ 8 $ nX$ 8 vX8 8 7 7 7 nX6 5 5 6 5 4 4 5 5 6 5 $ vXnX4 6 8 8 nXvXnXmX5 # 6 6 6 6 5 6 7 ",
"8 7 7 7 $ w 0 $ 5 4 4 5 7 6 vXw $ 5 # # # 6 0 q mXmXnX$ bXvXbXvXq 5 6 5 5 5 5 5 5 5 5 5 6 0 8 6 8 $ $ vXbXnXL.$ 5 7 5 5 5 5 7 7 ",
"6 7 8 $ 0 mXnX8 nX7 7 7 6 bXe w 5 # # # # 1 6 L.# 6 mXw nXnXnXq L.6 6 5 5 5 4 5 5 5 6 5 6 mX$ 6 8 vXnXvXbX$ nXL.5 7 7 5 6 6 7 7 ",
"7 $ $ L.e vX6 7 8 MXvXbXbXvXMX5 # # # # # vXL.vX# 1 # 8 MXMXmXq uXvX5 5 5 5 5 # 4 5 5 4 7 L.$ 6 6 8 $ $ $ $ 8 e vX6 $ 7 5 6 5 5 ",
"$ vXe MX7 6 5 5 6 7 8 MXnXe bX4 1 # # # # q vX# 1 1 # # 8 5 5 7 vXw w nX6 5 5 # # 4 5 7 nXe 5 6 6 6 8 bX$ $ 8 nXL.6 5 5 4 4 5 5 ",
"vXL.nX7 6 6 5 5 6 6 4 7 8 vXmXnX# # # # q q q # # # # 5 7 # 4 4 5 e $ w w q 8 6 5 5 6 8 nX0 5 6 6 8 bX$ $ 8 $ mXq bX7 6 7 5 7 $ ",
"q MX7 5 5 5 5 7 6 8 8 5 6 6 8 q mX6 6 vXvXvXL.q 6 4 5 vX$ vX4 1 8 L.4 5 5 w nXnX8 8 8 e mX0 7 6 8 8 6 $ $ 6 8 L.mXq bXbX8 vX$ nX",
"mX6 # 4 5 6 6 6 7 6 6 6 5 5 6 6 vXmXcX6 6 6 6 cXvX6 8 8 vXvX7 5 $ q # 1 # 5 8 nXL.nXq w nXw vX6 vX$ bX8 $ 8 nXw MXmXq vXvXvXMXw ",
"uX5 6 5 6 6 6 7 6 6 6 6 6 6 6 5 8 mX6 # # # # 6 cXL.0 vXvX$ 6 q q q # # # # # $ mX8 5 5 5 6 $ $ vX$ bXvXnXcXe w 8 # L.cXmX$ 5 # ",
"# 5 5 6 5 6 6 6 6 6 6 7 7 7 6 6 8 L.nX# # # # # 6 e cXL.mXnXq e w mX0 6 5 7 8 vXq 7 4 # # 5 # $ MXvXL.MXMXnX$ 7 # # # L.8 5 5 # ",
"8 $ 4 6 6 6 6 6 6 6 6 6 8 8 6 8 nXmXe 6 # 6 # # # 5 vXcXcXnXvX5 # 8 nXnX6 8 bXnXq 5 # 4 8 8 5 7 mX7 4 5 # 5 # # # # # # e # 6 7 ",
"q w 8 5 7 6 6 6 6 6 6 6 7 8 8 nXMXL.nX0 6 5 # 5 6 7 7 5 q nX# # 4 # # vXq $ mXe nX# 6 7 $ $ 7 vXnX5 # # # # 1 # 1 1 # # L.nXnXmX",
"8 4 4 bX8 6 6 6 6 6 8 6 6 6 vXq mXmX8 vXvX6 6 7 8 6 7 8 nX$ # # 6 8 5 vXe L.$ $ q vXvXvXvX$ $ L.w 4 1 # # # # # # 1 # 6 vXw L.vX",
"6 1 1 5 $ 8 6 6 6 6 7 6 5 8 nXnXL.cXe e q vX7 6 6 6 7 7 nX$ 4 6 8 7 5 nX7 5 # # # # 6 L.L.MXvXMXnX4 # # # # # # 4 # 4 8 nX$ 5 5 ",
"# # # # 5 $ 8 6 6 6 6 6 6 0 q L.w nX7 6 8 L.nX6 vX5 6 6 w 6 7 bXvX$ 8 mX6 # # 4 5 # # $ nXcXe mX8 # # # # 4 # 5 5 # # vXmX7 # 6 ",
"1 # # # # 5 nX8 7 6 5 6 $ nXw L.nX# # 5 7 $ e L.MXvX8 nXL.$ vXnXL.nXnXnX6 4 5 8 8 vXvXq q $ $ L.mX# # # 4 4 4 6 5 5 6 vXMX5 1 # ",
"# 5 5 5 # # 5 q 8 6 8 vXvXq L.L.q 7 # 7 $ q L.cXL.nXnXe vX4 4 6 q L.vXmXq 0 mXq q vX0 8 # # # 5 e 6 # # 4 5 4 4 5 4 nX8 e 5 # # ",
"# 5 5 1 # # # 0 e bX0 nXq w cXe 0 nX0 0 mXmXq e e w nX6 # # # # # 5 7 $ 5 # 4 4 # # # # 6 4 4 4 e cXvX6 0 8 8 nX0 0 $ mXe # # 6 ",
"# 5 # # # 4 4 6 w q q nXnXnXmX$ 8 5 8 7 5 6 7 nXe L.6 # # # 1 # # # 4 # # # # # # # # # 4 6 4 # vXnXq q q q q 0 q q L.mXe 5 # # ",
"4 4 # # # 4 5 6 nXq nX0 $ 8 7 # 5 6 # 6 5 5 7 $ e mX4 1 # # # 5 4 5 # # # # # # # # # # # # # 4 L.L.bXvXvX8 8 0 vX$ 0 mXe 5 # # ",
"# # # 4 4 5 5 $ e q vX7 6 # # # # # # # # 5 5 $ e q 4 # # # 4 5 4 4 # # # # # # 4 # # 5 4 4 # 6 mXvX# # # 4 4 5 5 5 8 nXMX4 # # ",
"# # 5 5 5 7 8 vXe vX6 # # 5 5 # # # # # # 5 6 8 vXnX1 # # # # # 6 5 # # 5 # # 5 4 5 5 6 5 7 5 8 nX0 5 4 5 6 4 5 4 8 8 nX$ 4 # 4 ",
"# 5 7 7 7 7 7 0 e 8 4 # # 5 # 4 6 # # # 5 6 # 8 $ nX4 # # # # 4 4 # # # 4 4 4 5 5 5 5 6 5 8 6 $ w vX7 6 8 8 6 7 6 $ 8 mX7 # # # ",
"5 7 8 8 nX$ vXnXnX7 # # # # 4 4 4 # # # 5 5 5 8 w nX5 4 # # # # # 5 4 4 5 5 5 5 5 5 # 6 8 7 8 L.L.6 4 8 vXvXbX8 bX8 vXL.vX# # # ",
"8 bX8 vXvXnXnXL.L.6 # # 4 5 4 # # # # 5 5 5 5 nXe mXnX# 4 5 5 5 5 5 4 4 4 4 5 8 6 8 8 8 8 8 8 pX8 # # 5 MXnX$ vX$ nXmXmXvX7 6 6 ",
"8 vXvXvXvXvXq MXvX$ # # # # # # # # # # 5 8 vXmXw 8 w 8 8 6 5 6 5 5 5 6 6 6 5 8 8 7 6 6 5 6 0 w 5 # # 8 nXw nXnXMXL.MXnXvX$ vXbX",
"pXq q nXnXmX8 # 5 8 8 6 5 6 5 5 # # 5 5 bXnX0 # # # # vXvX$ 8 8 7 7 8 8 8 8 $ $ 8 8 5 5 5 7 MXw # 4 8 mX8 0 vX5 # # 5 5 5 4 6 MX",
"7 vXnXMX0 8 # 1 1 4 $ vXvX$ 8 8 8 8 8 vXq vX# # 5 # # 5 w w nXvXvXvXw w w w w w $ $ 8 8 8 vXw w 5 # $ L.L.vX5 # # # # # 5 1 # # ",
"# # 8 $ q 5 # # # 4 L.nXcXcX0 nXq e e # # # # 5 4 5 6 6 7 w w w w w $ 8 8 8 7 8 $ w w w w w L.nX7 6 bX0 L.$ 4 # # # # # # # # 6 ",
"# # 1 6 mX4 # # # 5 vXL.vX# 4 # 4 w w # # # # 5 5 6 vX8 5 8 w w mXvX7 8 7 6 6 6 6 q $ q vX5 5 # 7 $ $ 0 MX8 # # # # # # # # # # ",
"# # 4 6 L.$ # # # 6 MXvX# # # 5 # 5 w 5 5 # 4 4 6 8 MX8 8 7 nXnXvX$ 8 7 8 8 7 7 vXnX8 8 # # # # # 5 L.mXpX6 # # # # # # # # # # ",
"4 6 7 q L.8 6 # # 8 w 4 # # # # # 4 8 8 6 5 5 5 5 8 7 5 7 nXmX7 L.vX7 7 8 $ vX$ q vX$ 6 # # # # 7 5 6 w mX5 # # # # # # # 4 4 # ",
"6 vXvXMX$ nX0 # 6 nXnX1 # # # # # 1 4 MXvX8 7 5 6 8 vXbXL.nXMX$ L.L.vX6 7 8 $ 8 nXq $ # # # 4 # # # # 7 mX# # # # # # 4 4 5 4 5 ",
"$ nXL.5 4 # L.q 8 L.5 1 # # # # # # # 7 MXq nX$ $ nXL.vX$ 8 6 7 $ q w vX7 5 7 6 8 q $ # 1 4 # 4 6 # # 5 mX0 # # # 4 5 5 6 7 6 7 ",
"nXL.4 # # # 5 L.L.w 5 1 # 4 # # # # # 7 vXMXMXMXmXw w 8 5 4 4 5 5 5 0 q nX7 7 8 bXL.q 7 6 # 5 5 4 # # 6 e nXvX6 4 6 6 6 7 7 8 $ ",
"$ 4 1 # 4 4 # 5 MX8 # # # # # # # # # 7 MXMXMXvXnXvX8 5 4 5 4 5 5 5 5 nXnXmX$ vXnXe q L.vX0 8 5 $ 4 5 8 cXL.vXq bXvXvXvX8 vXvXL.",
"6 # 4 6 5 4 5 # L.5 # # # # # # # # # 6 $ 5 8 MXvX5 4 6 5 6 6 5 5 6 6 8 w nXnXnXq q 8 L.L.L.q vXq 0 vXnXL.w q nXnXL.nXnXvXq w 8 ",
"# 5 6 5 6 6 6 4 nX1 # 1 # # # # # # # 6 nX# 5 MX7 # # 4 5 5 4 5 5 5 6 6 8 $ L.e nX# # # # # 6 vXq L.nXL.mXw L.L.L.mXnXmXe w 7 1 ",
"4 # 5 5 8 6 7 vXL.1 1 # # # 4 5 # # # vXL.# 5 w 6 6 5 4 5 4 5 5 5 5 5 6 8 7 8 vX$ # # # # 4 4 4 # 0 L.e L.L.$ # 5 5 5 8 MX8 # # ",
"6 5 5 7 7 5 bXL.L.1 # # 4 # 4 5 # # 4 mXq # # mXbX8 5 5 7 5 5 7 6 6 5 5 8 vX0 vX8 1 # # # 4 # # 5 6 nXe cX6 1 # # 5 5 # vXnX# # ",
"8 6 5 5 5 6 0 w nX# # # # 4 4 4 # 5 7 $ nX# # 7 nXnX7 5 5 5 5 7 6 6 6 vX8 0 mX7 6 # # # 4 5 5 5 6 8 nXw w # # # # 5 6 8 6 mX7 5 ",
"vX$ 6 5 5 7 MXnXnX7 5 # 4 # # 5 # 5 8 nXq # # # nXnX8 5 5 5 6 6 8 8 6 6 6 0 cXvX$ # # 5 5 4 5 4 bX$ q MXMX8 6 # 6 # 8 4 4 mXMX8 ",
"8 0 8 6 8 vXmXnXq mXnX7 # 4 5 5 5 6 8 q L.7 # # 8 nX8 5 5 6 6 7 8 6 7 7 $ mXmXL.$ 6 6 8 5 4 5 6 vXvXmXvXw vX6 # 4 5 4 # # MXw $ ",
"nXnXvXbX$ nXL.8 4 5 5 5 vXvX8 5 4 bXnXe mXmXL.5 # L.$ 5 5 6 6 6 6 7 7 7 nXvXmXmX8 bX8 $ vXbX7 bX$ nXvX7 L.q 6 vX6 # 6 6 bXL.mXL.",
"4 vX0 vXL.5 4 # # # # 1 # # vX0 nXcXe mX5 5 vXL.L.MX$ 6 6 6 6 6 6 6 7 8 q 0 mXvX$ 0 0 nX8 8 bX8 vXMX8 5 # L.8 6 $ q 8 8 8 L.L.5 ",
"6 8 w L.5 # # 1 1 # # # # 1 # 6 bXnXw # 4 4 # 5 $ mX$ 6 5 7 6 7 6 6 8 $ nXmX0 0 vXnXmXMXnXnXvXq MXL.$ 5 4 5 q w q nX$ nXnXvX5 # ",
"6 nX$ 5 # # 5 4 # # # # # 4 # 6 0 L.7 # # 6 8 5 6 MX$ 6 5 6 6 6 5 6 7 6 0 mXnX0 MX$ 5 5 5 4 4 5 # 4 nXbX6 8 vXq q w mXL.MX5 # # ",
"$ L.5 # # # # # # # # # 4 4 # 5 vXw 5 4 6 8 7 5 bXmX$ 6 6 6 6 6 6 7 6 $ mXmXq 7 # 5 # # # # # # # # $ 0 vX$ vXnXq mXnXMX5 4 # # ",
"MXL.# # # # # # # # # # 4 # 4 5 vXMX6 7 bXvX$ 8 nXmX0 6 7 6 8 7 6 7 7 bXmX0 vX# # 4 5 5 5 4 # # # 5 7 nX8 L.L.cXcXe q 7 # # # 7 ",
"L.$ # # # # # # # # 5 5 # # # # $ nXmX$ $ $ $ $ L.MXw vX7 0 vX5 8 8 7 mXq nX6 # # 4 4 4 4 4 # 5 6 7 bX8 5 6 6 6 vXe q # # # 6 0 ",
"L.5 # # # # 4 1 # # # # # 4 4 4 4 $ $ mX$ nXq q L.# # q 0 vXq nX$ $ 0 mX0 0 5 # # 4 5 5 4 5 5 6 $ vXL.7 5 6 6 6 7 nXMX# # 5 $ nX",
"bX4 # # # # # # # 4 # # # 4 4 4 4 4 6 7 8 mXmXmXmX4 # vXe q nX$ 0 0 nXnX$ nX# # 5 4 5 5 5 5 4 7 8 8 MXnX$ 6 6 6 7 nXw 4 6 bXMXnX",
"8 # 4 # # # # # # # # # # # # # 4 4 4 4 6 8 mXmXmX# # # nXvXmXq mXMXmXnX$ L.5 # 4 5 5 4 5 5 6 7 8 8 w w nXnXvX$ vXw w vXbXnXMX0 ",
"6 4 # # # # 4 4 4 # # # # 4 # # # 5 # # 4 6 8 mXmX8 5 5 5 8 L.mXmXmX0 MXL.L.5 # 5 4 4 4 4 6 6 8 vXMXw w w e MXe w MXMXMXMXmXnX8 ",
"7 5 4 # # # # 4 # # # # # 4 # # # # 4 # 4 8 6 8 mXvX6 7 4 8 L.mX8 6 5 5 7 L.5 # 5 4 5 4 5 5 5 8 8 L.MXMX6 6 6 7 $ MXvX5 5 8 MX8 ",
"5 4 # # # # 4 4 4 # # # # 4 4 4 4 4 # # 4 # 5 6 mXnXbX$ 6 vXL.8 # # # # 5 L.5 # # 5 5 4 5 5 5 7 $ nXMX6 # # # 5 6 MX8 4 # 5 MX8 ",
"5 # 5 # # # 4 5 4 # # # # # 5 # # 5 # # # 4 4 5 L.e L.L.nXL.mX8 # # 6 # 5 nX4 4 5 5 4 4 5 6 8 $ vXw 6 # # # # 4 7 MX$ 5 5 5 w 6 ",
"6 6 6 4 4 # # # # # # # # # 4 4 # # # # 4 4 7 7 nXL.7 mXMXe mX7 6 6 6 7 8 8 7 6 6 7 # 4 5 5 8 bXe 8 # # # # 4 bXq mXMX7 8 0 MX5 ",
"bX6 5 # 5 4 # # # # # # # 4 # 5 6 # # 5 4 7 7 nXL.7 5 4 6 7 nXnX7 7 8 $ vX$ $ 8 vX$ 6 6 5 7 $ nXq 8 6 # # # $ mXMXnX8 8 nXmXMX7 ",
"$ nX6 6 6 6 5 5 5 6 # 4 # # # 4 5 # 7 7 7 7 nXMX$ 4 1 # # 4 $ MXL.$ $ vXw vX0 vXvXnXvX8 8 vXnXL.vXL.8 7 6 vXmXMX6 6 # # 5 # 5 # ",
"# $ vXvX7 7 8 8 8 8 7 6 # 7 7 7 7 7 7 vXvXq q L.# 1 # # # 1 # L.q q L.MXL.8 5 4 $ nX0 q q e nXnX8 8 L.L.nXnXnX5 5 # 5 6 5 5 5 # ",
"5 # # bXnXL.nXmXmXL.7 $ nXvXvXvXvXvXvXvX$ w $ # # 5 6 6 6 5 # # $ MX0 $ vX8 6 6 8 5 6 nXnXvXvX8 5 # 4 8 nX$ 4 # 4 5 5 5 7 $ 7 7 "
};
