/* XPM */
static char *_509242362318[] = {
/* columns rows colors chars-per-pixel */
"64 64 256 2 ",
"   c black",
".  c #0000A8",
"X  c #00A800",
"o  c #00A8A8",
"O  c #A80000",
"+  c #A800A8",
"@  c #A85400",
"#  c gray66",
"$  c gray33",
"%  c #5454FC",
"&  c #54FC54",
"*  c #54FCFC",
"=  c #FC5454",
"-  c #FC54FC",
";  c #FCFC54",
":  c gray99",
">  c #ECECEC",
",  c gainsboro",
"<  c #D0D0D0",
"1  c #C0C0C0",
"2  c #B4B4B4",
"3  c gray66",
"4  c #989898",
"5  c gray55",
"6  c #7C7C7C",
"7  c gray44",
"8  c #646464",
"9  c gray33",
"0  c #484848",
"q  c gray22",
"w  c #2C2C2C",
"e  c #202020",
"r  c #FC0000",
"t  c #EC0000",
"y  c #E00000",
"u  c #D40000",
"i  c #C80000",
"p  c #BC0000",
"a  c #B00000",
"s  c #A40000",
"d  c #980000",
"f  c #880000",
"g  c #7C0000",
"h  c #700000",
"j  c #640000",
"k  c #580000",
"l  c #4C0000",
"z  c #400000",
"x  c #FCD8D8",
"c  c #FCB8B8",
"v  c #FC9C9C",
"b  c #FC7C7C",
"n  c #FC5C5C",
"m  c #FC4040",
"M  c #FC2020",
"N  c #FC0000",
"B  c #FCA85C",
"V  c #FC9840",
"C  c #FC8820",
"Z  c #FC7800",
"A  c #E46C00",
"S  c #CC6000",
"D  c #B45400",
"F  c #9C4C00",
"G  c #FCFCD8",
"H  c #FCFCB8",
"J  c #FCFC9C",
"K  c #FCFC7C",
"L  c #FCF85C",
"P  c #FCF440",
"I  c #FCF420",
"U  c #FCF400",
"Y  c #E4D800",
"T  c #CCC400",
"R  c #B4AC00",
"E  c #9C9C00",
"W  c #848400",
"Q  c #706C00",
"!  c #585400",
"~  c #404000",
"^  c #D0FC5C",
"/  c #C4FC40",
"(  c #B4FC20",
")  c #A0FC00",
"_  c #90E400",
"`  c #80CC00",
"'  c #74B400",
"]  c #609C00",
"[  c #D8FCD8",
"{  c #BCFCB8",
"}  c #9CFC9C",
"|  c #80FC7C",
" . c #60FC5C",
".. c #40FC40",
"X. c #20FC20",
"o. c #00FC00",
"O. c #00FC00",
"+. c #00EC00",
"@. c #00E000",
"#. c #00D400",
"$. c #04C800",
"%. c #04BC00",
"&. c #04B000",
"*. c #04A400",
"=. c #049800",
"-. c #048800",
";. c #047C00",
":. c #047000",
">. c #046400",
",. c #045800",
"<. c #044C00",
"1. c #044000",
"2. c #D8FCFC",
"3. c #B8FCFC",
"4. c #9CFCFC",
"5. c #7CFCF8",
"6. c #5CFCFC",
"7. c #40FCFC",
"8. c #20FCFC",
"9. c #00FCFC",
"0. c #00E4E4",
"q. c #00CCCC",
"w. c #00B4B4",
"e. c #009C9C",
"r. c #008484",
"t. c #007070",
"y. c #005858",
"u. c #004040",
"i. c #5CBCFC",
"p. c #40B0FC",
"a. c #20A8FC",
"s. c #009CFC",
"d. c #008CE4",
"f. c #007CCC",
"g. c #006CB4",
"h. c #005C9C",
"j. c #D8D8FC",
"k. c #B8BCFC",
"l. c #9C9CFC",
"z. c #7C80FC",
"x. c #5C60FC",
"c. c #4040FC",
"v. c #2024FC",
"b. c #0004FC",
"n. c #0000FC",
"m. c #0000EC",
"M. c #0000E0",
"N. c #0000D4",
"B. c #0000C8",
"V. c #0000BC",
"C. c #0000B0",
"Z. c #0000A4",
"A. c #000098",
"S. c #000088",
"D. c #00007C",
"F. c #000070",
"G. c #000064",
"H. c #000058",
"J. c #00004C",
"K. c #000040",
"L. c #282828",
"P. c #FCE034",
"I. c #FCD424",
"U. c #FCCC18",
"Y. c #FCC008",
"T. c #FCB400",
"R. c #B420FC",
"E. c #A800FC",
"W. c #9800E4",
"Q. c #8000CC",
"!. c #7400B4",
"~. c #60009C",
"^. c #500084",
"/. c #440070",
"(. c #340058",
"). c #280040",
"_. c #FCD8FC",
"`. c #FCB8FC",
"'. c #FC9CFC",
"]. c #FC7CFC",
"[. c #FC5CFC",
"{. c #FC40FC",
"}. c #FC20FC",
"|. c #FC00FC",
" X c #E000E4",
".X c #C800CC",
"XX c #B400B4",
"oX c #9C009C",
"OX c #840084",
"+X c #6C0070",
"@X c #580058",
"#X c #400040",
"$X c #FCE8DC",
"%X c #FCE0D0",
"&X c #FCD8C4",
"*X c #FCD4BC",
"=X c #FCCCB0",
"-X c #FCC4A4",
";X c #FCBC9C",
":X c #FCB890",
">X c #FCB080",
",X c #FCA470",
"<X c #FC9C60",
"1X c #F0945C",
"2X c #E88C58",
"3X c #DC8854",
"4X c #D08050",
"5X c #C87C4C",
"6X c #BC7848",
"7X c #B47044",
"8X c #A86840",
"9X c #A0643C",
"0X c #9C6038",
"qX c #905C34",
"wX c #885830",
"eX c #80502C",
"rX c #744C28",
"tX c #6C4824",
"yX c #5C4020",
"uX c #543C1C",
"iX c #483818",
"pX c #403018",
"aX c #382C14",
"sX c #28200C",
"dX c #600064",
"fX c #006464",
"gX c #006060",
"hX c #00001C",
"jX c #00002C",
"kX c #302410",
"lX c #480048",
"zX c #500050",
"xX c #000034",
"cX c gray11",
"vX c #4C4C4C",
"bX c gray36",
"nX c gray25",
"mX c gray19",
"MX c #343434",
"NX c #D8F4F4",
"BX c #B8E8E8",
"VX c #9CDCDC",
"CX c #74C8C8",
"ZX c #48C0C0",
"AX c #20B4B4",
"SX c #20B0B0",
"DX c #00A4A4",
"FX c #009898",
"GX c #008C8C",
"HX c #008484",
"JX c #007C7C",
"KX c #007878",
"LX c #007474",
"PX c #007070",
"IX c #006C6C",
"UX c #980088",
/* pixels */
"tXwXwXwXwX9XqXwXqXwXwXqXqX9XqXqXqXyXwXqXqXtXqXqX8XtXwXwXwXrXqXwXwXtXyXqXwXwXwX9XqXwXqXwXwXwXwXyXtXqXqXwXqXqX8XwXqX8XqX9XqXqX9XwX",
"tXrXwXwXwX9XqXwXqXqXwXqXqX9XqXqXqXtXwXqXqXrXqXqX9XrXwXqXqXrXqXwXqXtXyXwXwXwXwX9XqXwXqXwXwXwXwXyXtXqXqXwXqXqX9XwXqX8X9X9XqXqX9XwX",
"tXwXwXwXwX9XqXwXqXqXwXqXqX8X9XqXqXrXwXwXqXqXwXqX9XrXwXqXqXqXwXwXwXtXtXqXwXwXwX9XqXwXqXwXwXqXwXyXtXwX9XqXwXqX9XqXqX8X9XqXqX9XqXrX",
"tXwXqXwXqX9XqXqXqXqXqXqXqX8XqXqXqXrXwXqXqX9XqXqXqXrXwXwXqXqXwXwXwXwXrXwXqXwXqX9XqXqXqXwXwXqXqXyXtXwX9XqXwXqX9XqX9X8X8XqX9X9XqXrX",
"tXwXqXwXqX9XqXqXqXqXqX9X9X8XqXqXwXrXwXqXqX8XqXqXqXwXwXwX9XqXqXwXwXqXrXqXqXwXqX9XqXqXqXwXwXqXqXyXtXwX9XqXwXqX9XwXqX8X8XqX9XqXqXrX",
"yXrX9XwXqX9XqXqXqXqXwX9X9X8XqXwXwXrXqXqXqX8XqXqXqX9XqXwXqXqX9XwXwXqXrXwX9XwXqX9XqXqXqXwXwXqXqXyXrXqX9XqXqXqX8XwXqX8X9XqX9XwXqXtX",
"yXwX9XwX9X9XqXqXqXqXwX9XqX8XqXqXwXrX9XqXqX8X9XqXqXqXqXqXqXqX9XqXwXqXrXrX9XwX9X9XqXqXqXwXwXqXqXyXrXqX9XqXqXqX8XwX9X6XqXqXqXwXqXrX",
"yXwXqXwX9X9XwXqXqXqXwX9XqX8XqXqXwXrX9XqXwX8X9XqX9XqXqX9XwXqX9XqXqXqXrXrXqXwX9X9XwXqXqXqXqXqXqXyXwXqX9XqXqXqX8XwX9X6XqX9XwXwXqXrX",
"yXqXqXqX9XqXwXqXqXwXwX9XqX8XqXwXqXrXqXqXwX9X8XqXqXqXqX9XwXqX9X9XqXqXrXwXqXqX9XqXwXqXqXqXqX9X9XtXwXqXqXqXqXqX8XqX9X8XqXqXwXqX9XtX",
"yXqXqXqX9XqXwXqX9XwXwXqXqX8XqXwXqXrXqX9XwXqX8XqXqXwXqXqXqXwXqX9XqXqXrXwXqXqX9XqXwXqX9XwXwX9X9XtXwXqXqXwXqXqX9XqX9X8XqXqXwXqX9XtX",
"yXwXqX9XqXqXwX9XqXwXwXqXqX8XqXwXqXrXqX9XwXqX9X9XqXwXqXqX9XwXqXqXqXqXrXrXqX9XqXqXwX9XqXwXwX9XqXyXwX9XqXwXqXqXwXqXqX9XqX9XwXqXqXtX",
"uXrXqX9XqXwXqXqXwXwXqXqXqX8XqXwXqXrXqX9XqXqX9X9XqXwXqXqX9XwXqXqXqX9XtXrXqX9XqXwXqXqXwXwXwX9XqXyXrX9XwXwXqXqXwXqXqX9XqX9XwXwXqXtX",
"MXwXqX9XqXqX9XwXwXwXqXqX9X8XqXwXqXtXqX9XqXqXqX9X9XwXwXqXqXqXwXqX9X8XyXwXqX9XwXqX9XwXwXrXwX9XwXtXwXqXwXwX9XqXwXqX9XqXqX9XqXwXqXrX",
"MXqXqXqXqXqXqXwXwXqXqX9X9X8XqXwXqXtXqX9XqXqXqX9X9XwXwXqXqXqXwXwX9X8XuXqXqXqXwXqXqXwXwXtXwXqXwXtXqXqXwXqXqXqXwXwXqXqXqX9XqXwXqXwX",
"uXwX9XqXwXqXqXwXwXqXqX9XqX8XqXwXqXtXqX9XqXqXqX9X8XwXwXwXqXqXqXqXqX8XyXwXqXqXrXwXwXwXrXyXtXrXtXtXwXqXqX9XqXwXwXqXqX9XqXqXqXwXqXwX",
"uXwX9XqXwX9XwXwXwXqXqX9X9X8XwXwXqXtXwX9XqXwXqXqX8XwXwXwXwXqX9XqXqX9XuXtXrXrXyXrXtXtXtXtXtXrXyXtXrXqXqXqXwXwXqXqXqXqX9XqXqXwXqXwX",
"yXwX9XwXwXqXwXqXqXqX9X9X9X9XwXwXwXtXwX9XqXwXqXqX8XwXwXwXwXqX9XqXwX9XyXrXwXrXtXwXrXrXwXrXrXqXrXtXrXwXqXqXwXqXqXqXqXqX9XqXwXqXqXwX",
"tXrX9XwXqXqXwXqXqXqX9X8X9XqXwXwXwXtXwXqXqXwXqXqX8XqXqXwXwXqX9XqXqX9XyXwXqXrXwXqXwXwX9XwXrX9XqXyXrXwX9XwXwXqXqXqXwXqX9XqXwXqX9XqX",
"yXrX9XqX9XqXqXqXqX9X8X8X9XqXqXwXwXtXwXqXqXwXqXqX9XqXqXwXwXwXqX9XqXqXtXqX9XqXqXqXqXqX9XwXrX9XqXtXtXqXqXwXwXqXqXqXwXqXqXqXwXqXqXqX",
"yXrXqXqX8XqX9XqXqX9X8X9X9XqXqXqXqXtXwXwX9XqXwXqX9XqXqXqXwXwXwX9XqXwXtXqX9XqXqXwXqXqX9XqXqX9X9XyXrXqXqXwXwXqX9XqXqXwXqXwXqXqXqX9X",
"tXrXqXqX8X9X9XqXqX9X8X9XqXwXqXqXqXrXwXwX9XqXwXqX9XqXqX9XwXwXwX9XqXwXtXwX9XqXqXqXqXqX9XqXqX9X9XtXrXqXqXqXwXqXqX9XqXwXqXwXqXqXqXqX",
"tXtXqXwX8X9X9X9XqXqX8X9XqXwXqXqXqXrXwXwX9XqXwXqX9XqXqX9XwXqXwXqXqXwXtXwX9XqXwXqXqX9X9XqXqX8X9XtXrXwX9X9XqXqXqXqX9XqXwXwXqXqXqXwX",
"tXtXqXwX9X8X9X8XqXqX9X9XqXwXqXqXqXrXwXqX9XqXqXwX8XwXwX9XqXqXwXwX9XwXtXqX9XqXwXwXqX8X9XqXqX8X9XtXwXwX9X9XqXwXqXqX9X9XwXwXqXqXqXwX",
"rXtXqXwXqX8X9X8XqXqX9X9XqXqXwXqXqXrXwXqX9XqXqXqX8XwXwXqX9XqXwXwXqXrXtXqX9XqXwXwXqX8X9XqXqX9X9XtXwXwXqX9XqXwXwXqXqX9XqXwXqXqXqXwX",
"rXyXqXwXqX9X8X9X9XqX9X9XqXqXwXqXqXrXwXqX9XqXqXqX8XqXqXqX9XqXwXwXqXwXtXqX9X9XwXwXqX9X9XqXqX9XqXtXwXwXqX9XqXwXwXwXqX9X9XwXqXqXqXwX",
"rXyXwXqXqX9X8X9X9XqXqX9X9XqXwXqXqXrXwXqXqXqXqXqX8XqXqXqX9XqXwXwXqXqXtXqX9X9XwXwXqX9X9XqXqX9XqXtXwXqXqX9XqXwXqXwXwXqX9XwXqXqXqXwX",
"rXyXwXqXqXqX9X8X9XqXqX9X9XqXwXwXqXrXwXqXqXwXqX9X9XqXqX9X8XqXwXqXqXqXtXqX9X8XqXwXqX9X9XqXqX9X9XtXwXqXqX8XqXqXqXwXwXwXqXwXqXqXqXrX",
"rXyXqXqXqXqX9X8X9XqXqX9X9XqXwXwXqXrXwX9XqXwXqX9X9XqX9X9X8XqXqXqX9XwXtXrX9X8XqXwXwX9X9XqXqX9X9XtXrXqXqX8XrXqXqXwXwXwXqXqXqXwXrXtX",
"tXtX9XqXqXqX9X9X8XqX9XqX9XqXwXwXqXtXrX9XwXwXqX9XqXqX9X8X9XqXwX9X9XrXtXrXqX9XqXwXwXqX9XqX9X9X9XyXrXqXqX8XyXqXqXwXwXwXwXwXwXtXyXyX",
"uXtX9XqXwXqXqX9X8X9XqXqXqXqXwXwXqXtXwXqXwXqX9XqXqXqX8X9XqXqXwX9X9XwXtXrXqXqX9XwXqXqX9XqXqX9X9XyXtXrXwX9XtXqXwXtXrXtXtXyXyXtXrXtX",
"uXtX9XqXwXqXqX9X9X9XqX9XqXwXwXwX9XtXqXqXwXqXqXwXqXqX8X9XqXqXqX9XqXwXyXrX9XqX9XwXqXqX9XqXqX9X9XyXtXtXyXrXrXrXrXyXtXrXwXtXrXqXwXrX",
"yXrXqXqXwXqX9XqX9X9XqX8X9XqXqXwX9XtXqXqXqX9XwXwXqX9X8X9XwXqXqX9XqXwXyXrX9XwXqXqXwXqX9XqXqX9X9XyXtXqXrXqX9XqXqXwXwXqXqXtXwXqXwXwX",
"tXtXqXqXwXqXqXqXqX9X9X9X9XwXqXwX9XtXwXqXqXqXwXwXqX9X9XqXwXqX9XqXqXwXyXrX9XwXqXqXwXqX9XqX9XqX9XyXtX9XwXqX9X9XqXwXwXqXqXrXwXwXqXwX",
"rXtXwX9XqXwX9XqXqX9X9X9X9XqXqXwXqXtXwXwXqXqXwXqXqX9XqXwXwX9X9XqXwXwXyXrX8XwXwXqXwXqX9XqXqXqXqXyXrX9XqXqX9X9XqXqXqXqXqXqXwXwXqXqX",
"rXrXwX9XqXwX9XqXqXqX8X9X9XqXqXqXqXtXwXwXqXwXwXqX9XqXqXwXqX8X9XqXqXwXyXqX9XqXqXqXqXqX9XqXqX9XqXuXrX9XqXqXqX9X9XqXqXqXqX9XwXqXqXqX",
"rXrXwX9XqXwX9X9XqXqX9X8X9XqXqXqXqXtXrXqXqXwXwXqX9XwXwXwXqX8XqXwXqXwXtXqX9XqXqXwXqXqX9XqXqX8X9XyXrX9XqX9XqX9X9XqXqX9XqX9XwXqXqXqX",
"rXrXqX9XqXqX9X9XqXqX9X8X9XqXqXqXqXtXrXqXqXwXwX9XqXwXwXwX9X9XqXwXqXqXtX9X9X9XqXwXqX9X9XqXqX9X9XtXrXqXqX9XqXqX9XqXqX9XwXqXqXwXqXqX",
"rXrXqX9XqXqXqX9X9XqX9X8X9XqXqXqXqXyXrXqXqXqXwX9XqXwXwXqX9XqXqXwXwXqXtXqX9X8XqXwXwX9X9XqXqX9X9XtXwXqXqX9XqXqXqXqXqX9XwXqXqXwXqXqX",
"rXrXqX9XqXqXqXqX9XqX9X9X9XqXwXqXqXyXrXwXqXqXqX9XqXqXqX9X9XqXwXwXqXqXtXqXqX9XqXwXwXqX9XqX9X9X9XrXqX9XwX9X9XqXqXqXqX8XwXwXqXwXqXqX",
"rXrXqXqXqXqXwXqX9XqXqX9X9XqXwXqXqXyXrXwXqX9XqXwXqXqX9X9XqXqXwXqXqXwXtXqXqXqX9XwXqXqX9XqXqX9X9XrXqX9XwX9X9XqX9XqXqX9XqXqXqXqXqXqX",
"rXrXqXqXwXqXwXqX9XqXqX9XqXqXwXqX9XyXrXqXqX9XqXwXqXqX9X9XqXwXwXqX9XqXtXwX9XqX9XwXqXqX9XqXqX9X9XtXwX9XwXqX9XqXqXqXqX9XqXqXwXqXqX9X",
"rXrX9XqXwXqXwXqX9XqXqX9XqXqXqXqX9XyXwXqXqX9XqXwXqXqX9XqXwXwXwXqX9XqXtXwX9XwXqXqXwXqX9XqXqX9X9XtXrX9XwXqX8XqXqXqXwXqX9XqXwXqXqX9X",
"rXrX9XwXqX9XwXqX9XqXqX9XqXqXqXqX9XtXrXwXwX9XqXwXqX9X9XqXqXwXwXqXqXwXtXwX9XwXqXqXwXqX9XqX9XqX9XtXrX9XwXqX9X9XqXqXwXqX9XqXwX9XqX9X",
"rXwXqXwXqX9XwXqX9XqXqXqXqXqXwXwXqXtXrXqXwX8XqXwXqX9XqXwXqXqXqX9XqXwXrXrX8XwXwXqXwXqX9XqXqXqXqXtXrX9XwXwX9X9X9XqXwXqX9XqXwX9XqX9X",
"rXqXwXwXqXqXwXqX9XwXwXwXqX9XwXqXqXtXrXqXqX9XqXqXqX9XqXwXwXqX9X9XwXqXrXrX9XqXqXqXqXqX9XqXqX9XqXtXrX9XqXwXqX9X9XqXwXqX9XqXwX9X9X9X",
"tXqXwXqX9XwXwXqX9XwXwXwXqX9XwXqXqXrXrXwXqX9XqXqX9XqXqXwXqX9X9XqXqX9XrXrX9XqXqXwXqXqX9XqXqX9XqXtXrX9XqXwXwX9X9XqXwXwX9XqXqX9X9X9X",
"tXwXwXqX9XwX9XqXqXwXwXwXqX9XwXqXqXrXtXwXqXqXqX9X9XqXqXwX9X9X9XqXqX8XrXrXqX9XqXqX9XqXqXqXqX9XqXtXtX9X9XqXwXqX9XqXwXqX9XqXqX9X9X9X",
"tXrXwXqXqXwX8XqXwXqXqXqXqX9XqXwX9XrXrXwXqXqXqX9XqXqXqXwX9X9X9XwXqX8XrXtXqX9XqXqX8XqXwXqXqXqXqXyXtXqX9X9XwXwX9X9XwXqX9XqXwX9XqX9X",
"tXrXrXqXqXwX8XwXwXqXqX9X9X9XqXqX9XtXrXwXqXqX9XqXqXwXwXwX9X9XqXwX9X8XrXtXqXqXqXqX8XqXwXwXwXwXqXtXtXwX9X9XqXwX9X8XwXqX9XqXwX9XqX9X",
"tXtXrXqXqXwX8XrXqXqXqX9X9X9XwXwXqXtXrXwXqX9XqXqXwXwXwXqX9XqXwXqX9X9XrXtXqXwXqXqX8XqXqXwXwXwXqXtXtXwXqX9XqXwX9X8XwXqX9XqXwXqX9X9X",
"tXyXtXwXwXrXqXtXwXqXqXwXqX9XwXrXqXtXrXwXqX9XqXwXwXwXqX9X9XqXwX9XqX9XrXtX9XqXqXqX8XqXqXwXwXwXqXtXtXqXqX9XqXwX9X8XqXqX9XqXwXqX9X9X",
"tXyXrXrXrXtXwXrXrXwXqXrXwXwXwXrXwXtXrXqXqX9XwXwXwXqXqX9X9XqXwX9XqX9XtXrX8X9XqXqX8X9XqXqXqXqXwXrXtXqXqX9XqXqX9X6XqX9X9XqXwXqXqX9X",
"tXtXqXwXwXrXqXqXtXrXwXtXrXrXtXtXrXyXwXqXqXqXwXwXqXqXqX8XqXwXwX9X9X9XtXrX8X9XqXwX8X9XqXqXqX9XqXrXrXqXqX9XqXqX9X6XqX9X9XqXqXqXqX9X",
"tXtX9XqXqXwX9X9XrXwXqXrXrXwXwXwXrXyXqXqXqXwXqXqXqXqXqX8XqXwXqX9X9XqXtXrX8XqXqXwX9X8XqXqXqX9XqXrXwXqXqX8X9XqX9X6XqX9XqXqX9XqXqX9X",
"tXtX8XqX9XwXqX8XrXqXqXrXwXwXqXqXrXyXqXqXqXwX9XqX9XqXqX9XqXqXqX9XqXqXtXrX8XqX9XwXqX8XqXqXqXqXqXrXwXqXwX8X9XqXqX6XqX9XqX9XqXwXqX9X",
"yXrX9XqX9XwXqX9XwXqXqXrXwXwXqXqXwXtXwXqXwXqX8XqXqXqXqXqXqXqXqXqX9X9XrXrX9XqX9XwXqX9X9XqX9XqXqXtXwXqXwX9X8XqXqX8X9XqXwX9XqXwXqX9X",
"yXrX9XqX9XqXqX9X9XqXqXwXwXwX9XqX9XrXwX9XwXqX8XqXqXqXqXqXqXqXwXwX9X9XtXrX9XqX9XqXqX9X9XqX9XqXqXtXwX9XwXqX8XqXqX9X8XwXwX9XwXwXqXqX",
"tXrXqXqX9XqXqXqX9XqXwXwXwXqX9XqX9XrXwX9XwXqX9XqXqXqXqXqXqXqXqXqX9XqXtXrXqXqX9XqXqXqX9XqX9XqXwXtXwX9XwXqX9X9XqXqX8XwXqX9XqXwXqXqX",
"yXrXwXqX9XqXqXqX9XqXwXwXwXqXqXqX9XrXwX9XqXqX9X9XqXwXwXqXqXqXqX9X9XqXtXtXwXqX9XqXqXqX9XqXqXqXwXtXrX9XqXqX9X9XqXwX8XqX9XqXwXwX9XqX",
"yXrXwXqX9XqXqXqX9XwXwXwXwXqXqXqXqXtXwX9XqXqXqX9X9XwXwXqXqXqX9X9X9XqXtXtXrXqX9XqXqXqX9XqXqXwXwXtXrX9XqXqXqX9X9XwX8XqX9XqXwXqXqXqX",
"tXwXqXwX9XqXwXqX9XwXwXwXwX9XqXqXqXtXtXwXwXwXwXqX9XqXqXqXqXqX9XqXwXwXtXrXwXwX9XqXwXqX9XwXwXwXwXtXrX9XqXqXqX9X9XqX8XqXqXwXwX9XqXwX",
"tXwXqXwX9XqXwXqXqXwXwXwXwX9XqXqXqXyXtXrXtXrXrXwXqXwXwXwXwXwXqXrXrXrXyXwXqXwX9XqXwXqXqXqXqXwXwXtXrX9XqXqXqX9X8XqX8XqXqXwXqX9XqXwX",
"tXwXqXwXqXqXwXqX9XwXwXqXwX9XqXqXqXuXrXqXwXtXtXrXwXtXtXtXtXrXrXtXtXtXyXwXqXwXqXqXwXqX9XwXwXwXwXtXtX9XqXwXqXqX8XqX8XqXqXqX9X9XqXwX",
"tXwXwXwXqXqXwXqXqXwXwXqXqX9XqXqXqXyXrX9XqXtXwXqX9XyXrXrXtXtXwXrXrXtXtXqXwXwXqXqXwXqXqXwXwXwXwXtXtX9XqXwXqXqX8XqX9X9XqX9XqXqXqXwX"
};
