/* XPM */
static char *_509139075253[] = {
/* columns rows colors chars-per-pixel */
"64 64 256 2 ",
"   c black",
".  c #0000A8",
"X  c #00A800",
"o  c #00A8A8",
"O  c #A80000",
"+  c #A800A8",
"@  c #A85400",
"#  c gray66",
"$  c gray33",
"%  c #5454FC",
"&  c #54FC54",
"*  c #54FCFC",
"=  c #FC5454",
"-  c #FC54FC",
";  c #FCFC54",
":  c gray99",
">  c #ECECEC",
",  c gainsboro",
"<  c #D0D0D0",
"1  c #C0C0C0",
"2  c #B4B4B4",
"3  c gray66",
"4  c #989898",
"5  c gray55",
"6  c #7C7C7C",
"7  c gray44",
"8  c #646464",
"9  c gray33",
"0  c #484848",
"q  c gray22",
"w  c #2C2C2C",
"e  c #202020",
"r  c #FC0000",
"t  c #EC0000",
"y  c #E00000",
"u  c #D40000",
"i  c #C80000",
"p  c #BC0000",
"a  c #B00000",
"s  c #A40000",
"d  c #980000",
"f  c #880000",
"g  c #7C0000",
"h  c #700000",
"j  c #640000",
"k  c #580000",
"l  c #4C0000",
"z  c #400000",
"x  c #FCD8D8",
"c  c #FCB8B8",
"v  c #FC9C9C",
"b  c #FC7C7C",
"n  c #FC5C5C",
"m  c #FC4040",
"M  c #FC2020",
"N  c #FC0000",
"B  c #FCA85C",
"V  c #FC9840",
"C  c #FC8820",
"Z  c #FC7800",
"A  c #E46C00",
"S  c #CC6000",
"D  c #B45400",
"F  c #9C4C00",
"G  c #FCFCD8",
"H  c #FCFCB8",
"J  c #FCFC9C",
"K  c #FCFC7C",
"L  c #FCF85C",
"P  c #FCF440",
"I  c #FCF420",
"U  c #FCF400",
"Y  c #E4D800",
"T  c #CCC400",
"R  c #B4AC00",
"E  c #9C9C00",
"W  c #848400",
"Q  c #706C00",
"!  c #585400",
"~  c #404000",
"^  c #D0FC5C",
"/  c #C4FC40",
"(  c #B4FC20",
")  c #A0FC00",
"_  c #90E400",
"`  c #80CC00",
"'  c #74B400",
"]  c #609C00",
"[  c #D8FCD8",
"{  c #BCFCB8",
"}  c #9CFC9C",
"|  c #80FC7C",
" . c #60FC5C",
".. c #40FC40",
"X. c #20FC20",
"o. c #00FC00",
"O. c #00FC00",
"+. c #00EC00",
"@. c #00E000",
"#. c #00D400",
"$. c #04C800",
"%. c #04BC00",
"&. c #04B000",
"*. c #04A400",
"=. c #049800",
"-. c #048800",
";. c #047C00",
":. c #047000",
">. c #046400",
",. c #045800",
"<. c #044C00",
"1. c #044000",
"2. c #D8FCFC",
"3. c #B8FCFC",
"4. c #9CFCFC",
"5. c #7CFCF8",
"6. c #5CFCFC",
"7. c #40FCFC",
"8. c #20FCFC",
"9. c #00FCFC",
"0. c #00E4E4",
"q. c #00CCCC",
"w. c #00B4B4",
"e. c #009C9C",
"r. c #008484",
"t. c #007070",
"y. c #005858",
"u. c #004040",
"i. c #5CBCFC",
"p. c #40B0FC",
"a. c #20A8FC",
"s. c #009CFC",
"d. c #008CE4",
"f. c #007CCC",
"g. c #006CB4",
"h. c #005C9C",
"j. c #D8D8FC",
"k. c #B8BCFC",
"l. c #9C9CFC",
"z. c #7C80FC",
"x. c #5C60FC",
"c. c #4040FC",
"v. c #2024FC",
"b. c #0004FC",
"n. c #0000FC",
"m. c #0000EC",
"M. c #0000E0",
"N. c #0000D4",
"B. c #0000C8",
"V. c #0000BC",
"C. c #0000B0",
"Z. c #0000A4",
"A. c #000098",
"S. c #000088",
"D. c #00007C",
"F. c #000070",
"G. c #000064",
"H. c #000058",
"J. c #00004C",
"K. c #000040",
"L. c #282828",
"P. c #FCE034",
"I. c #FCD424",
"U. c #FCCC18",
"Y. c #FCC008",
"T. c #FCB400",
"R. c #B420FC",
"E. c #A800FC",
"W. c #9800E4",
"Q. c #8000CC",
"!. c #7400B4",
"~. c #60009C",
"^. c #500084",
"/. c #440070",
"(. c #340058",
"). c #280040",
"_. c #FCD8FC",
"`. c #FCB8FC",
"'. c #FC9CFC",
"]. c #FC7CFC",
"[. c #FC5CFC",
"{. c #FC40FC",
"}. c #FC20FC",
"|. c #FC00FC",
" X c #E000E4",
".X c #C800CC",
"XX c #B400B4",
"oX c #9C009C",
"OX c #840084",
"+X c #6C0070",
"@X c #580058",
"#X c #400040",
"$X c #FCE8DC",
"%X c #FCE0D0",
"&X c #FCD8C4",
"*X c #FCD4BC",
"=X c #FCCCB0",
"-X c #FCC4A4",
";X c #FCBC9C",
":X c #FCB890",
">X c #FCB080",
",X c #FCA470",
"<X c #FC9C60",
"1X c #F0945C",
"2X c #E88C58",
"3X c #DC8854",
"4X c #D08050",
"5X c #C87C4C",
"6X c #BC7848",
"7X c #B47044",
"8X c #A86840",
"9X c #A0643C",
"0X c #9C6038",
"qX c #905C34",
"wX c #885830",
"eX c #80502C",
"rX c #744C28",
"tX c #6C4824",
"yX c #5C4020",
"uX c #543C1C",
"iX c #483818",
"pX c #403018",
"aX c #382C14",
"sX c #28200C",
"dX c #600064",
"fX c #006464",
"gX c #006060",
"hX c #00001C",
"jX c #00002C",
"kX c #302410",
"lX c #480048",
"zX c #500050",
"xX c #000034",
"cX c gray11",
"vX c #4C4C4C",
"bX c gray36",
"nX c gray25",
"mX c gray19",
"MX c #343434",
"NX c #D8F4F4",
"BX c #B8E8E8",
"VX c #9CDCDC",
"CX c #74C8C8",
"ZX c #48C0C0",
"AX c #20B4B4",
"SX c #20B0B0",
"DX c #00A4A4",
"FX c #009898",
"GX c #008C8C",
"HX c #008484",
"JX c #007C7C",
"KX c #007878",
"LX c #007474",
"PX c #007070",
"IX c #006C6C",
"UX c #980088",
/* pixels */
"tXtXtXtXrXwXwXtXyXyXyXyXyXyXtXqXqXqXqXwXwXtXyXyXtXtXtXyXyXyXyXtXrXwXwXtXtXtXtXrXrXrXwXwXqXwXrXtXrXrXrXwXwXwXwXwXwXwXrXtXtXyXyXyX",
"yXyXyXyXyXyXyXtXrXrXtXyXyXyXyXyXyXyXyXyXtXtXyXyXtXrXrXtXtXtXtXtXtXtXtXrXwXrXtXyXtXrXrXtXtXtXtXtXwXwXrXtXtXtXtXtXtXyXyXyXyXyXyXyX",
"yXyXyXyXyXyXyXyXyXyXyXyXyXyXyXyXyXyXyXyXyXyXyXyXyXyXyXyXyXyXyXyXyXyXyXyXyXyXyXyXyXyXyXyXyXyXyXyXyXyXyXyXyXyXyXyXyXyXyXyXyXyXyXyX",
"w mXe e e e cXcXcXe e e e e e e e e e e e e e cXcXe e e e e e e e e e e cXcXe e e e e e cXcXe e e e e e cXcXe e e e e e e MXpXw ",
"w pXe e e e e cXcXe e e e w e e e pXpXe w e e e cXe e e e e e e e e e e e cXe e e e e e e e e e w e e e e cXe e w w e e w uXyXmX",
"mXpXe e e e e cXcXkXw kXe w e w w iXtXmXw w kXkXcXkXw w w w w kXe w e w e cXkXw e e e e kXe kXkXw e e kXkXcXkXw w w e kXw yXtXpX",
"pXuXkXkXkXkXe e e e w e w w w w w iXtXpXw pXe e e e w w w w w nX6 w w w kXe e w w w e e e e e e w e w e e e e w w pXw e w tXrXMX",
"MXyXw e e e e kXe e w w w w w pXw pXiXe w pXe e e e w w w w w 7 4 w w e e e e w w w e w e e e e w e 0 vXbXvXnXw w pXw e w rXrXMX",
"MXyXw e w w e kXe e w w w w w w w yXtXmXw pXe kXe e w e e w nX# 7 nXw e e e e w w e e w e e e e nX$ bX8 bX$ vXnXw w pXe w wXrXMX",
"MXtXw e w w e kXe e w w e w w w w yXtXpXw w e kXe e w e e w bX4 vX8 pXw e e e w w e e w e e e vXbX7 # 5 8 fXvX0 q w pXe w wXtXMX",
"uXtXe e w w e kXe e w w e e w w cXpXiXe w w e kXe e e cXcXe 6 7 $ 7 pXw kXe e w w e w w e e q h.8 7 5 6 7 bXvXvX0 q pXe w rXyXMX",
"uXtXe w w w e kXe e w w e w w w e tXrXmXe w e kXe e cXcXcXnX6 bX0 8 w w kXe e w w e w w e 0 0 fXbX8 7 8 bXvXvXvX0 $ pXe w rXyXMX",
"uXyXe w w e e e e e w w e kXe e e rXwXpXe w e kXe e cXcXcX0 5 h.vXbXnXw kXe e w e e w pXe bXnXvXbXvXbXbXvXvXvX0 nXvXq e w rXyXMX",
"uXyXe w w e e kXe e w w e e cXcXcXpXyXe e w w e e cXcXcXcXbX7 vXfXvXbXw uXrXe w e w pXpXe 7 q nXvXvX$ vXvXvX0 nXq nXq e w rXuXMX",
"uXyXw w w e w kXe e w w e e cXcXkXtX9XmXe w w e e cXcXcXcX7 bXnXfXvX7 w tXrXe e w w pXw q nX7 q q 0 vXvX0 q q q e q w e w rXuXMX",
"uXyXw w w e w kXe e w w e e cXcXkXrX9XpXe e e kXe cXcXcXnX7 fXvXfXvX7 q rXtXe e w w w e vXq w bXfXnXnXq q MXMXw e MXe e w tXuXMX",
"uXyXe w w e e kXe e w w e e cXe cXpXtXe e e e kXe cXcXcX0 h.vXh.bXvXfXvX0 q e e w w w e $ q 0 rXiX$ 0 q MXMXw e MXMXe w w tXyXMX",
"MXyXe w w e e kXe e w w e e cXe e tX9XmXw e e kXcXcXcXcXbXh.nXbXfXfXfX7 5 4 0 e w w e e w bXtXiXpXL.q nXnXq MXq MXw e w w tXyXMX",
"uXyXw w e e e kXe e w w e e cXe w wX8XpXw e kXkXcXcXcXcXfXfXnXbXfXfXbXnXbX6 6 w w e e 8 nXw Q ! $ nXL.w w nXnXq e e e w e tXtXMX",
"uXyXw w e e e kXe e w w e e cXe cXpXrXL.pXw kXkXcXcXcXcXh.fXvXfXfXfXbX0 8 7 fXw e e e nX$ q yXQ Q iXL.0 q w e e w L.e w e tXtXMX",
"uXyXe w e e e kXe e w w e e cXe e tX9XmXw w kXkXcXcXcXq 7 vXfXbXh.bXbXvX7 bXvXw e e e e 0 vXMXtXMXL.w L.e e L.MXw w e w e rXyXMX",
"uXyXe e e e e kXe e w w w e cXe w wX8XpXw w kXe cXcXcXq 6 nXfXfXh.bX8 7 7 vXnXw e e e e cXw MX0XiXL.MXq q MXw w w w e w w rXyXMX",
"uXyXe cXe e e kXe e w e w e cXe cXpXtXL.w w kXcXcXcXcXq 6 nX0 q w w w MX0 7 nXe e e e e cXcXuX0XuXL.w e kXe e w w w e w e rXyXMX",
"uXyXyXw qXwXwXrXtXwXqXwXqXtXyXwXwXrXtXwXqXwXqXtXtXwXqXwXqXtXyXtXqX3XyXqXwXwXrXtXwXqXwXqXtXyXtXqX3XyXqXqX9XwXyXq q qXwXqXpXrXyXMX",
"yXyX9XuX6X6X9X9X9X9XqXqXqXqXqX6X9X9X9X9XqXqXqXqX9X9XqXqXqXqXqXqXqXqX9X6X6X9X9X9X9XqXqXqXqXqXqXqXqX9X6X6X6X9XqXqX9X9XqX6Xw tXyXMX",
"yXtXrXe uXwXwXwXwXrXtXtXtXtXtXwXwXwXwXrXtXtXtXtXwXrXtXtXtXtXtXyXtXtXwXqXwXwXwXwXrXtXtXtXtXtXyXtXtXwXqXwXwXwXqXqX9XrXtXtXpXuXyXMX",
"yXtXpXcXe e e e e e cXe e e cXe vXmXnX$ nXe e e e e e e e e cXcXe w uXw cXcXcXe e e e e e e w pXe cXcXcXcXe e e e e e e cXe yXMX",
"yXrXtXw w e e cXcXcXw uXw cXcXe uXnX8 mXe e cXcXcXcXcXcXcXcXcXcXe iXuXcXcXcXcXcXe e cXcXw cXcXL.kXcXcXcXe pXw cXcXcXcXcXe rXyXMX",
"yXrXrXe w e e e cXcXe e e cXcXcXcXvX7 mXkXe e cXcXcXe e cXcXcXe e pXuXcXcXcXcXe kXkXe e vXpXw e e cXcXcXcXe e cXe e w e e rXyXMX",
"uXwXrXe w e w kXcXcXe w e cXcXcXe 8 6 q w e kXe e e e e cXcXcXw MXtXrXkXe cXkXe w w e e Q 8 $ tXyXpXw e e w e cXe w w e e rXyXMX",
"uXwXrXe w w w kXcXcXe w w e cXe e 7 6 q w w e kXe e kXe cXcXcXw q ! tXkXe e e w w kXe cXtXmXiXtXqXQ vXyXe w w cXe w w e e tXyXMX",
"uXrXqXe w w w kXcXcXe w pXe cXcXMX6 5 q w w e e e cXe cXcXcXcXw q rXyXe cXcXe w w e cXcXrXL.q L.nXwXiXw e w e cXe w w e e rXtXMX",
"uXtXqXe w w w e cXcXw w pXe cXL.cX6 4 q w pXe e cXcXcXcXcXcXcXw uXrXuXcXcXcXe w w e cXcXwXw nXw L.tXpXiXe w e cXe w w e e rXtXMX",
"uXtXqXe w w e e cXcXw w pXcXcXcXe 7 # q w pXe kXcXcXe cXcXcXcXMXuX! e e cXcXe w w e cXcXrXq nXL.mX$ pXpXe w e e e w w w e rXtXMX",
"uXtXqXe w w e e cXe e w w cXcXcXL.7 # q w pXe kXcXe e cXcXcXw MXyXtXw e kXcXe w w e cXcXw cXnXw mXwXiXw cXe e cXe w w w e rXtXMX",
"MXtXqXe w w e e e kXe e e cXcXcXw 8 2 q w pXe kXe e w cXcXcXw q yXtXw e kXcXe w e e cXcXw cXq mXq qXrXyXe cXcXkXw w w w e rXtXMX",
"MXtXqXe w w kXe e e e e e cXcXe MX8 , q w w e kXe e kXcXcXe w q tX! w e kXcXe w e e e e cXcXnXw nXL.e cXe cXe e w w w w e tXtXMX",
"uXyXrXe w w kXkXe kXkXkXkXcXcXe MX$ 1 q e w e kXe e e cXcXe w uXtXyXw e kXcXe w e e e e cXcX0 L.vXL.aXkXe cXe e w w w w w tXtXMX",
"uXtXtXe w e kXkXe kXe w e e cXe MX8 2 mXe w e kXe e e cXcXe MXuXtXuXw e kXe e w e e e e cXcXvXL.$ L.w e kXe kXw w pXw pXw tXtXMX",
"yXtXtXw w e e kXe kXe w w e cXe MX8 # mXe w w kXe e e cXcXcXMXyXtXuXe e e e e w e e e e cXcX0 w bXL.w e kXe e w w pXw pXw tXyXMX",
"uXtXtXw w e e kXe kXw w w e cXe MX7 4 mXe w w kXe e e cXcXcXMX! rXw e e kXe e w w e e e cXcXvXmX8 L.w e kXe e w w w w w pXtXyXMX",
"uXtXtXw e e w kXe e w e w e cXe w 7 5 mXe e e kXe e cXcXcXw MXtXrXw e w kXe e w w e e e cXcX$ q bXw w e kXe e w w w w w pXtXyXMX",
"uXtXtXw e e w kXe e w w w e cXe w 7 6 mXe e e kXe e cXcXcXw q rXrXw e w kXe kXw w e e e cXcXbXnXbXw w e kXe e w w w w w pXtXyXMX",
"yXtXtXw e w e kXe e w w w e cXe L.7 6 mXe e e kXe e cXcXe w uX! tXw e e kXe e e w e e e cXcXvXq bXw w e kXe e w w w w w w tXyXMX",
"yXtXtXw w w e kXe e w w w e cXe w 6 7 mXe e w kXe cXcXcXe w yXrXyXw e e kXe e e w w e e cXcXnX0 8 w w e kXe e w w w e w w tXtXMX",
"uXtXtXw w w e kXe e w e w e cXe w 6 8 mXe e e kXe cXcXcXcXMXtXwXuXe e e kXe e e w w w e cXcXnXvX7 mXe e kXe e w w e e w e tXtXMX",
"uXtXtXw e w e kXe e e e w e cXe MX7 7 e e w e kXe cXcXcXw MXwXwXe e e e kXe e e w w w e cXcXnXbX6 mXw w kXe e e e e e w e rXtXMX",
"uXtXrXe e w e kXe e e e w e cXe MX8 6 e e w e kXe cXcXcXw MXrXwXw e e e kXe e w e w w e cXcX0 $ 7 mXw w kXe e e e e e w e rXtXMX",
"yXtXrXe w w e kXe e e e w e cXe MX8 5 e w w e kXcXcXcXcXw MXtXwXw e e e kXe e w e e w e cXcXvXbX6 q w w kXe e e e e w e e rXyXMX",
"yXtXrXe w w e kXe e w e e e cXe MX$ 5 e w e e kXcXcXcXe w w MXwXw w e e kXe e w e e e e cXcXbX8 6 q w w kXe e e e e w e w wXyXMX",
"uXtXrXe e w e kXe e w e e e cXL.MXvX6 w w e e e cXcXcXe w w w tXe w e e kXe e w w e e e cXcXnX7 bXq e w kXe e e e w w e w wXyXMX",
"uXtXrXe e w e kXe e w w e e cXe MX0 6 w e e e e cXcXcXe w w e e w w e e kXe e w w w e e cXcXw 6 $ kXe w kXe e w w w e e w wXyXMX",
"uXtXrXe e w e kXe e w w e e cXe mXnX8 w e e e kXe cXe kXw w w e w w e e kXe e w w w e e cXcXe 8 q kXe w kXe e w w w e w w rXyXMX",
"yXtXrXe e e e kXe e w w e e e L.mX0 $ e e w e kXe e w w w w w e w w e e kXe e e w w e e cXcXe nXL.e e e kXe e w w e e w w tXyXMX",
"yXtXrXe e w w kXe e w e e e e w q vXvXe e w w kXe e w w w w w e e w e w kXe e e w w w e e e e w cXw e e e e e w w e e w w rXtXMX",
"uXtXwXe e w w kXe e w e w e e w q $ q e e e w kXe e w w w w w w e w e w kXe kXe e w w e e e e w w pXe e e e e w w e w w w tXtXMX",
"uXtXwXw e w w kXe e w e w e e w q 8 mXe e e w kXe e w w w w pXw e w e w kXe kXe e w w w e e e w w pXe e kXe e w w e w w w tXtXMX",
"uXtXwXw e w w kXe e w e w e e w nX7 pXw e w w kXe e w w w w pXw e w w w kXe kXe e w w w e e e w w pXe e kXe e w w e e w w tXtXMX",
"uXrXwXw e w w kXe e w w w e e e nX5 w w e w w kXe e w w w w w pXe w w w kXe kXe e e w w e e e e w w w e kXe e w e e e w w tXyXMX",
"uXrXwXw e e w kXe e w w w e cXe nX6 w w e e e kXe e w e w w w pXe w w w kXe kXe e e w w e e e w e w w e kXe e w w e w w e tXyXMX",
"uXrXwXw w e w kXe e w w kXe cXcX0 8 pXw e e e kXe kXe e e w w pXe w w e kXe kXe e e w w e e e w e e w e kXe e w w e w w e tXyXMX",
"uXwXrXpXw e w kXe e w w e cXcXcXvXvXpXw e e e kXe kXe e e w w pXe w e e kXe e w e w w w e e w w e e w e kXe kXe w e e w L.tXyXMX",
"uXwXrXpXw e e kXe e w w e cXcXq 8 nXpXw e e e kXe kXe e e e w pXe e e e kXe e w e w w w e e w w e e e e kXe kXe w e e w q tXyXMX",
"uXtXrXw pXe e e e e w w e cXcXnX6 q pXw e e e e e kXe w w e w pXe e w e e e e w w w w w e e w w e e w w kXe e e e e e e q tXtXMX"
};
