/* XPM */
static char *_509139117254[] = {
/* columns rows colors chars-per-pixel */
"64 64 256 2 ",
"   c black",
".  c #0000A8",
"X  c #00A800",
"o  c #00A8A8",
"O  c #A80000",
"+  c #A800A8",
"@  c #A85400",
"#  c gray66",
"$  c gray33",
"%  c #5454FC",
"&  c #54FC54",
"*  c #54FCFC",
"=  c #FC5454",
"-  c #FC54FC",
";  c #FCFC54",
":  c gray99",
">  c #ECECEC",
",  c gainsboro",
"<  c #D0D0D0",
"1  c #C0C0C0",
"2  c #B4B4B4",
"3  c gray66",
"4  c #989898",
"5  c gray55",
"6  c #7C7C7C",
"7  c gray44",
"8  c #646464",
"9  c gray33",
"0  c #484848",
"q  c gray22",
"w  c #2C2C2C",
"e  c #202020",
"r  c #FC0000",
"t  c #EC0000",
"y  c #E00000",
"u  c #D40000",
"i  c #C80000",
"p  c #BC0000",
"a  c #B00000",
"s  c #A40000",
"d  c #980000",
"f  c #880000",
"g  c #7C0000",
"h  c #700000",
"j  c #640000",
"k  c #580000",
"l  c #4C0000",
"z  c #400000",
"x  c #FCD8D8",
"c  c #FCB8B8",
"v  c #FC9C9C",
"b  c #FC7C7C",
"n  c #FC5C5C",
"m  c #FC4040",
"M  c #FC2020",
"N  c #FC0000",
"B  c #FCA85C",
"V  c #FC9840",
"C  c #FC8820",
"Z  c #FC7800",
"A  c #E46C00",
"S  c #CC6000",
"D  c #B45400",
"F  c #9C4C00",
"G  c #FCFCD8",
"H  c #FCFCB8",
"J  c #FCFC9C",
"K  c #FCFC7C",
"L  c #FCF85C",
"P  c #FCF440",
"I  c #FCF420",
"U  c #FCF400",
"Y  c #E4D800",
"T  c #CCC400",
"R  c #B4AC00",
"E  c #9C9C00",
"W  c #848400",
"Q  c #706C00",
"!  c #585400",
"~  c #404000",
"^  c #D0FC5C",
"/  c #C4FC40",
"(  c #B4FC20",
")  c #A0FC00",
"_  c #90E400",
"`  c #80CC00",
"'  c #74B400",
"]  c #609C00",
"[  c #D8FCD8",
"{  c #BCFCB8",
"}  c #9CFC9C",
"|  c #80FC7C",
" . c #60FC5C",
".. c #40FC40",
"X. c #20FC20",
"o. c #00FC00",
"O. c #00FC00",
"+. c #00EC00",
"@. c #00E000",
"#. c #00D400",
"$. c #04C800",
"%. c #04BC00",
"&. c #04B000",
"*. c #04A400",
"=. c #049800",
"-. c #048800",
";. c #047C00",
":. c #047000",
">. c #046400",
",. c #045800",
"<. c #044C00",
"1. c #044000",
"2. c #D8FCFC",
"3. c #B8FCFC",
"4. c #9CFCFC",
"5. c #7CFCF8",
"6. c #5CFCFC",
"7. c #40FCFC",
"8. c #20FCFC",
"9. c #00FCFC",
"0. c #00E4E4",
"q. c #00CCCC",
"w. c #00B4B4",
"e. c #009C9C",
"r. c #008484",
"t. c #007070",
"y. c #005858",
"u. c #004040",
"i. c #5CBCFC",
"p. c #40B0FC",
"a. c #20A8FC",
"s. c #009CFC",
"d. c #008CE4",
"f. c #007CCC",
"g. c #006CB4",
"h. c #005C9C",
"j. c #D8D8FC",
"k. c #B8BCFC",
"l. c #9C9CFC",
"z. c #7C80FC",
"x. c #5C60FC",
"c. c #4040FC",
"v. c #2024FC",
"b. c #0004FC",
"n. c #0000FC",
"m. c #0000EC",
"M. c #0000E0",
"N. c #0000D4",
"B. c #0000C8",
"V. c #0000BC",
"C. c #0000B0",
"Z. c #0000A4",
"A. c #000098",
"S. c #000088",
"D. c #00007C",
"F. c #000070",
"G. c #000064",
"H. c #000058",
"J. c #00004C",
"K. c #000040",
"L. c #282828",
"P. c #FCE034",
"I. c #FCD424",
"U. c #FCCC18",
"Y. c #FCC008",
"T. c #FCB400",
"R. c #B420FC",
"E. c #A800FC",
"W. c #9800E4",
"Q. c #8000CC",
"!. c #7400B4",
"~. c #60009C",
"^. c #500084",
"/. c #440070",
"(. c #340058",
"). c #280040",
"_. c #FCD8FC",
"`. c #FCB8FC",
"'. c #FC9CFC",
"]. c #FC7CFC",
"[. c #FC5CFC",
"{. c #FC40FC",
"}. c #FC20FC",
"|. c #FC00FC",
" X c #E000E4",
".X c #C800CC",
"XX c #B400B4",
"oX c #9C009C",
"OX c #840084",
"+X c #6C0070",
"@X c #580058",
"#X c #400040",
"$X c #FCE8DC",
"%X c #FCE0D0",
"&X c #FCD8C4",
"*X c #FCD4BC",
"=X c #FCCCB0",
"-X c #FCC4A4",
";X c #FCBC9C",
":X c #FCB890",
">X c #FCB080",
",X c #FCA470",
"<X c #FC9C60",
"1X c #F0945C",
"2X c #E88C58",
"3X c #DC8854",
"4X c #D08050",
"5X c #C87C4C",
"6X c #BC7848",
"7X c #B47044",
"8X c #A86840",
"9X c #A0643C",
"0X c #9C6038",
"qX c #905C34",
"wX c #885830",
"eX c #80502C",
"rX c #744C28",
"tX c #6C4824",
"yX c #5C4020",
"uX c #543C1C",
"iX c #483818",
"pX c #403018",
"aX c #382C14",
"sX c #28200C",
"dX c #600064",
"fX c #006464",
"gX c #006060",
"hX c #00001C",
"jX c #00002C",
"kX c #302410",
"lX c #480048",
"zX c #500050",
"xX c #000034",
"cX c gray11",
"vX c #4C4C4C",
"bX c gray36",
"nX c gray25",
"mX c gray19",
"MX c #343434",
"NX c #D8F4F4",
"BX c #B8E8E8",
"VX c #9CDCDC",
"CX c #74C8C8",
"ZX c #48C0C0",
"AX c #20B4B4",
"SX c #20B0B0",
"DX c #00A4A4",
"FX c #009898",
"GX c #008C8C",
"HX c #008484",
"JX c #007C7C",
"KX c #007878",
"LX c #007474",
"PX c #007070",
"IX c #006C6C",
"UX c #980088",
/* pixels */
"yXyXyXyXyXyXyXtXrXrXtXyXyXyXyXyXyXyXyXyXtXtXyXyXtXrXrXtXtXtXtXtXtXtXtXrXwXrXtXyXtXrXrXtXtXtXtXtXwXwXrXtXtXtXtXtXtXyXyXyXyXyXyXyX",
"yXyXyXyXyXyXyXyXyXyXyXyXyXyXyXyXyXyXyXyXyXyXyXyXyXyXyXyXyXyXyXyXyXyXyXyXyXyXyXyXyXyXyXyXyXyXyXyXyXyXyXyXyXyXyXyXyXyXyXyXyXyXyXyX",
"w mXMXe cXcXcXcXcXcXcXcXcXcXcXcXcXcXcXcXe cXcXcXcXcXcXcXcXcXcXcXcXcXcXcXcXcXcXcXcXcXcXcXcXcXcXcXsXcXcXcXcXcXcXcXcXcXcXcXe e pXw ",
"w pXiXe cXcXcXcXcXcXcXcXcXcXcXcXcXcXcXcXcXe cXcXcXcXcXcXcXcXcXcXcXcXcXcXcXcXcXcXcXcXe uXuXuXcXcXcXcXcXcXcXcXcXcXcXcXcXcXe e yXmX",
"mXpXiXe cXcXcXL.L.cXcXcXcXcXcXe e e e cXcXe L.e cXcXcXcXcXcXcXcXcXcXcXcXcXcXpXuXuXpXkXuXrXpXrXcXcXcXcXcXcXcXcXcXcXcXcXcXe kXtXpX",
"pXuXyXkXmXvXbXMXL.nXMXMXMXnXvXq vXbXvXq w q q q MXw e e e e e e e e e kX9X3X3X3X3X3XrXrX3XpXrXw w e w w cXcXcXe e kXe cXe e rXMX",
"MXyXrXe mXnXnXbXMXL.L.nXnXnXvXMXMXvXvXq nXw MXnXnXq w w w w w e e e rX8X>X;X:X:X3X6XqXiX>XtXqX6XuXe w e e e e w w pXw e w w rXMX",
"MXyXrXe mXMXnXvXvXbXbXnXMXvXnXnXL.nXvXnXnXw w q nXvXq w w w w cXe wX3X>X>X3X3X5 3X6XtXiX8XrXrX9XwXyXe e kXe e w w w pXe w w rXMX",
"MXtXrXe L.L.q q nXnXnXnXvXnXMXnXL.nXnXnXnXL.L.vXbXnXq nXL.w w cXcXqX>X:X3X7X0X9X6X6XiXiXrX6X9X>X6XqXw w e e e w w w pXe w w tXMX",
"uXtXtXe L.L.L.q L.w w w w nXL.w L.bXnXnXq MXMXMXvXq MXnXq w w e L.wX3X:X>X6X0X9X8XtXyXyX9XwXwXtX6X>XyXw e e e w w w pXe w w yXMX",
"uXtXtXw L.L.L.L.L.L.L.L.L.L.L.L.L.q w w w nXnXL.L.L.L.L.L.L.L.MXrXtX9X3X>X3X6X6X9XpXyXMXiX8X8X6X3X:XuXe e e e w w w pXe w w yXMX",
"uXyXyXyXtXyXyXuXpXyXtXyXtXyXyXrXyXyXtXtXtXrXyXuXMXpXyXtXtXtXrXyXyXyXrXtXyXpXyXyXyXyXtXrXyXyXyXtXyXyXtXyXuXpXyXtXtXtXyXtXyXrXyXMX",
"yXtXtXL.MXMXMXnXvXiXnXiXpXiXvXL.tX8X8X9X8X9X9X9X9X9X8X8X9X9X9X9XrXrX9X9X9X8X8X8X8X9X9XwXrX9XwXwXwX9X9X9X9X9X9X9XwXwX9X9X9X9XyXMX",
"uXtXrXrXwX$ $ $ vXnXq L.L.pXq e wXrXrXrXrXwXwXrXrXrXrXwXwXwXwXwXwXrXrXrXrXrXrXrXrXwXwXwXwXrXrXrXrXrXrXwXwXrXrXrXrXrXrXrXwXrXyXMX",
"uXtXMXMXMXMXMXMXMXMXMXMXMXMXMXMXMXMXMXMXMXMXMXMXMXMXMXMXMXMXMXMXMXMXMXMXMXMXMXMXMXMXMXMXMXMXMXMXMXMXMXMXMXMXMXMXMXMXMXMXMXMXyXMX",
"uXtXtXcXsXsXsXcXcXcXcXvXcXcXsXcXsXsXsXsXsXsXsXcXcXsXcXsXsXcXsXsXe cXsXsXcXcXsXsXe sXsXsXsXcXcXcXcXsXcXcXcXcXcXcXsXcXcXcXe cXyXMX",
"yXtXtXe cXe cXcXcXcXcXh.cXsXe e cXcXe cXcXcXcXsXcXcXe cXcXe cXcXe e cXcXsXcXcXcXe cXcXcXcXe e e cXcXcXcXcXcXcXcXcXe e e e cXyXMX",
"yXtXtXe e e cXcXcXsXe 6 nXcXe cXcXcXe cXcXcXe sXcXcXe cXcXcXcXcXe e cXcXsXcXcXcXe e cXcXcXcXe e cXcXcXcXcXcXsXcXcXe cXe e cXtXMX",
"uXtXtXe e e cXcXcXsXcXfXvXcXe cXcXcXe cXcXcXcXpXcXcXe cXcXe cXe e cXcXcXsXcXcXcXe e e cXcXcXe e cXcXcXcXe cXcXcXsXcXcXe cXcXtXMX",
"uXtXtXw e w e e cXe w fXfXnXw e e e w e e w e kXe kXe e e w e w w e e e kXe e e w w w e e e w w e e e cXe kXe e kXe e w e w tXMX",
"uXtXrXe e w e e e e e bXbXvXw e e e w e e w e kXe kXe e e w e e w e e e kXe e w e w w e e e w w cX9XwXe cXcXe e kXe e w e w tXMX",
"yXtXrXe w w e kXcXkXkX8 h.bXq w e e w e w w e kXe kXe e e w e e w e e e kXe e w e e w w e e w e yXpX8XwXyXcXkXe kXe w e e w yXMX",
"yXtXrXe w w e kXe e w 6 5 8 q w e e w e w e e kXe kXe e e w e e w w e e kXe e w e e e w e e cXyXpXpX6X8XwXyXe e e e w e w w yXMX",
"uXtXrXe e w e kXe e w e vXq w w e e w w w e e e e kXe e w w e e e w e e kXe e w w e e w e cXyXpXpXqXtXyXtXwXyXe e w w e w w yXMX",
"uXtXrXe e w e kXe e w vX4 bXq vXnXq MXw e e e e e kXe e w w e e w w e e kXe e w w w e w e cXtXpXpX8XqXtXyXyXiXw w w e e w w yXMX",
"uXtXrXe e w e kXe e nX6 5 vXbXq bXvXnXq MXe e kXe kXe w w w w e w w e e kXe e w w w e e w e cXtXqXyXyXyXyXpXpXw w w e w w w yXMX",
"yXtXrXe e e e kXe e fXbXfXq vXMXfXbXvXvXtXMXe kXe e w w w w w e w w e e kXe e e w w tXtXw w e w pXw cX! ! pXpXpXw e e w w e yXMX",
"yXtXrXe e w w kXvX8 6 8 vXnXq vXq vXvXnXvXnXMXkXtXtXnXw w w w e e w e w kXe e e nXtXwXwXnXw e w w pXcXpXW pXtXtXtXe e w w e yXuX",
"uXtXwXe e w w vX8 5 # 5 8 bXh.fXvXMXvXnXvXtXq wX8XqXwXrXnXw w w e w e w q nXtXwXqXqXqXwXrXtXqXnXw kXyXW tXW tXwXwXrXiXw w e tXMX",
"uXtXwXw e w nX8 5 4 2 h.6 7 8 bXfXnXnXnXnXyXtXyX8XqXqXwXwXrXtXq vXtXyXtXrXwXqXqXqXwXrX! 0X7X0XrXe yXeXW eXW tXwX8X8XrXiXw e tXMX",
"uXtXwXw e w yX8 6 5 6 8 7 h.8 fXvXvXw nXnXvXpXq 0X0XqXwXrXtXnXtXrXrXwXrXrXrXwXwXrXtX0X7XqXqXwXwXw tXE yXtXtXE yXwX8X8XrXiXe yXMX",
"uXrXwXw e w vX8 7 6 fX7 h.fXfX$ ! fXMXnXq nXyXq rX8XrXtXtXrXwXwXwXwXwXwXwXrXwXrXwXqXqXqXwXwXrXuXpXiXW tXrXqXtXE wXwXwXtXyXe yXMX",
"uXrXwXw e nXvXrX8 fXvX8 fXbXfXvXnXvXq MXMXq w vXMX8X0XqXqXqXqXqXqXqXwXrXrXwX0XqXwXwXrXrXtXtXvXw iXiX! iXqXqXtXW yXtXtXyXiXe yXMX",
"uXrXwXw w yX! vXfXnXvXfXbXvXvXnXyXvXnXL.w w vXtXMX0X9XqXqXwXqXqXwXrX! Q qXqXwXwXrXtXvX! rXrXtXuXiXiXiXyXtXrXtXyXW yXyXiXiXe yXMX",
"uXwXrXw e nXvXvX! MXvXvXvXnXnXvXnXnXnXL.w vXq tXe wX9X9X0XwXrXwXqXQ Q wXwXwXwXQ Q Q wXwXwXQ wXuXw pXiXyXyXtXiXw ! w iXiXe w yXMX",
"MXtXqXe e vXnXyXvXw vXnXnXvXnXnXyXnXq MX8 MXq e q rXwX7X9XqXrXrXwXrXwXwXwXQ Q qXqXqXqXQ Q rX! uXw pXpXiXiXiXpXpXw pXiXpXe w tXMX",
"uXyXrXe w 8 nXq MXMXnXnXq q q MXMXw nXvXMXMXe MXMXtXrXqX7XqXwXrXrXwXrXwXwXqX0XwXwXQ qXwXQ Q tXtXuXw pXpXpXpXpXpXiXiXpXe e w tXMX",
"uXtXtXe w q 8 6 vXw q q MXMXq nXnXnXnXMXMXe MXw MXyXtXrX0X9XqXwXrXtXrXrXwXwXQ W Q wXwXQ wXrXrXtXpXiXpXpXiXiXiXiXiXyXw e w w tXMX",
"yXtXtXL.MXMXvXvXbX6 6 8 8 $ nXnXq MXMXw e q tXyXq nXyXtXqXwXqXqXwXwXtXrXrXwXQ Q 8X8XQ qXwXwXQ wXrXtXtXqXqXwXrX9XwXwX9X9X9X9XyXMX",
"uXtXrXrXwX$ MXq vXnXvXnXnXq q MXL.e e MXnXvXrXrXtXq yXrXwXyXq nXrXwXrXvXtXrXwX8XqXtXtXwXwXMXq tXwXqXqXwXq rXrXrXrXrXrXrXwXrXyXMX",
"uXtXMXMXMXMXMXMXMXMXw w w L.L.e e e MXq yXtXrXwXrXrXwXrXq MXMXw MXnXwXrXtXvXwXqXrXMXMXMXMXMXMXMXMXMXMXMXMXMXMXMXMXMXMXMXMXMXyXMX",
"uXtXtXcXsXsXsXcXcXcXcXcXcXcXsXw L.q yXMXyXtXrXwXwXwXrXnXsXcXsXsXe cXMXtXwXrX$ sXe sXsXsXsXcXcXcXcXsXcXcXcXcXcXcXsXcXcXcXe cXyXMX",
"yXtXtXe cXe cXcXcXcXcXsXcXsXe e cXw MXq tXnXwXwXrXnXe cXcXe cXcXe e cXcXsXcXcXcXe cXcXcXcXe e e cXcXcXcXcXcXcXcXcXe e e e cXyXMX",
"yXtXtXe e e cXcXcXsXe sXcXcXe cXcXcXe yXrXwXtXnXcXcXe cXcXcXcXcXe e cXcXsXcXcXcXe e cXcXcXcXe e cXcXcXcXcXcXsXcXcXe cXe e cXtXMX",
"uXtXtXe e e cXcXcXsXcXsXcXcXe cXcXcXe cXcXcXcXpXcXcXe cXcXe cXe e cXcXcXsXcXcXcXe e e cXcXcXe e cXcXcXcXe cXcXcXsXcXcXe cXcXtXMX",
"uXtXtXw e w e e cXe w e e e w e e e w e e w e kXe kXe e e w e w w e e e kXe e e w w w e e e w w e e e cXe kXe e kXe e w e w tXMX",
"uXtXrXe e w e e e e e e e e w e e e w e e w e kXe kXe e e w e e w e e e kXe e w e w w e e e w w e e kXe cXcXe e kXe e w e w tXMX",
"yXtXrXe w w e kXcXkXkXkXe e w w e e w e w w e kXe kXe e e w e e w e e e kXe e w e e w w e e w w w e e kXe cXkXe kXe w e e w yXMX",
"yXtXrXe w w e kXe e w e e w w w e e w e w e e kXe kXe e e w e e w w e e kXe e w e e e w e e e w w e w w kXe e e e e w e w w yXMX",
"uXtXrXe e w e kXe e w e e w w w e e rXrXrXtXtXe e kXe e w w e e e w e e kXe e w w e e w e e e w w e e w kXe e e e w w e w w yXMX",
"uXtXrXe e w e kXe e w w e w e w rXqXqXqXqXwXwXrXrXnXe e w w e e w w e e kXe e w w w e w e e e w w w e w kXe e w w w e e w w yXMX",
"uXtXrXe e w e kXe e w w e w e rXqX9X9XqXwXwXrXrXtXtXnXw w w w e w w e e kXe e w w w e e w e e w pXw e w kXe e w w w e w w w yXMX",
"yXtXrXe e e e kXe e w w e w e rXqX9X9XqXwXwXrXrXtXtXnXw w w w e w w e e kXe e e w w e e w w e w pXw e e kXe e w w e e w w e yXMX",
"yXtXrXe e w w kXe e w e e w rXrXwXqXqXwXwXtXrXrXtXtXtXnXw w w e e w e w kXe e e w w w e w w e w w pXe e e e e w w e e w w e yXuX",
"uXtXwXe e w w kXe e w e w w rXrXwXwXwXwXtXrXrXtXtXtXnXL.w w w w e w e w kXe kXyXtXrXrXrXrXtXtXtXtXtXyXyXyXtXtXtXpXe w w w e tXMX",
"uXtXwXw e w w kXe e w e w e 8 tXrXrXrXtXnXrXtXtXnXq q L.w w pXw e w yXwXwXrXrXyXMXmXmXmXmXmXMXMXMXuXMXuXuXyXuXyXtXwXpXw w e tXMX",
"uXtXwXw e w w kXe e w e w w w 8 8 tXrXnXnXtXnXvXvXq w L.w w pXw e yXwXmXe e L.L.L.L.w mXmXMXMXMXuXMXuXuXyXuXyXyXyXrXyXw w e yXMX",
"uXrXwXw e w w kXe e rXrXwXqXw MXnX8 6 8 8 vXq w L.L.w L.wXwXrXpXe MXtXcXe e e L.w w mXmXMXMXMXuXMXuXuXyXuXyXyXrXwXyXmXw w e yXMX",
"uXrXwXw e e w rXrXwXqXqX9X9Xw MXq nXnXq MXMXw w L.L.w nXwXqXqXqXqXpXiXrXuXe e e L.L.e e e L.w mXmXMXMXuXyXtXwXpXe L.mXw e e yXMX",
"uXrXwXw w e rXqXqXqXqXwXwXwXnXMXq nXnXq MXMXw w L.nXtXqXqXqXqXqXqXmXiXmXpXtXyXmXe e pXtX9XwXyXcXL.cXcXcXL.qXpXe e L.L.w e e tXMX",
"uXwXrXpXw e wXqXqXwXrXwXrXwXrXwXnXnXnXq MXnXtXwXrXwXrXwXwXwXwXwXqXw iXmXw L.pXyXrXrXqX9XtXMXMXmXcXcXe cXsXrXqXyXpXe cXw tXrXMXMX",
"uXwXrXpXw e cXrXrXwXqXrXtXrXtXtXrXtXrXtXrXtXwXrXwXrXwXwXwXrXrXtXnXe w e L.MXyXtXw cXL.MXyXMXL.cXq nXe e kXrXyXtXrXwXwXtXyXMXmXMX",
"uXtXyXyXtXyXyXw q rXwXqXqXrXtXrXtXrXtXrXrXwXrXwXwXwXwXwXrXnXMXpXpXkXe pXyXMXw e cXpXpXcXL.yXcXvX8 L.nXyXuXtXyXtXtXyXuXuXMXMXmXpX",
"yXtX9XwXwXwXrXrXuXuXMXnXrXwXqXwXwXrXwXrXwXwXwXwXrXtXq MXuXuXyX9X8X8XrXwXrXtXtXyXuXwXrXuXpXe 8 uXw 8 L.nXrXL.mXuXtXyXuXMXmXL.L.w "
};
