/* XPM */
static char *_509138921592[] = {
/* columns rows colors chars-per-pixel */
"64 64 256 2 ",
"   c black",
".  c #0000A8",
"X  c #00A800",
"o  c #00A8A8",
"O  c #A80000",
"+  c #A800A8",
"@  c #A85400",
"#  c gray66",
"$  c gray33",
"%  c #5454FC",
"&  c #54FC54",
"*  c #54FCFC",
"=  c #FC5454",
"-  c #FC54FC",
";  c #FCFC54",
":  c gray99",
">  c #ECECEC",
",  c gainsboro",
"<  c #D0D0D0",
"1  c #C0C0C0",
"2  c #B4B4B4",
"3  c gray66",
"4  c #989898",
"5  c gray55",
"6  c #7C7C7C",
"7  c gray44",
"8  c #646464",
"9  c gray33",
"0  c #484848",
"q  c gray22",
"w  c #2C2C2C",
"e  c #202020",
"r  c #FC0000",
"t  c #EC0000",
"y  c #E00000",
"u  c #D40000",
"i  c #C80000",
"p  c #BC0000",
"a  c #B00000",
"s  c #A40000",
"d  c #980000",
"f  c #880000",
"g  c #7C0000",
"h  c #700000",
"j  c #640000",
"k  c #580000",
"l  c #4C0000",
"z  c #400000",
"x  c #FCD8D8",
"c  c #FCB8B8",
"v  c #FC9C9C",
"b  c #FC7C7C",
"n  c #FC5C5C",
"m  c #FC4040",
"M  c #FC2020",
"N  c #FC0000",
"B  c #FCA85C",
"V  c #FC9840",
"C  c #FC8820",
"Z  c #FC7800",
"A  c #E46C00",
"S  c #CC6000",
"D  c #B45400",
"F  c #9C4C00",
"G  c #FCFCD8",
"H  c #FCFCB8",
"J  c #FCFC9C",
"K  c #FCFC7C",
"L  c #FCF85C",
"P  c #FCF440",
"I  c #FCF420",
"U  c #FCF400",
"Y  c #E4D800",
"T  c #CCC400",
"R  c #B4AC00",
"E  c #9C9C00",
"W  c #848400",
"Q  c #706C00",
"!  c #585400",
"~  c #404000",
"^  c #D0FC5C",
"/  c #C4FC40",
"(  c #B4FC20",
")  c #A0FC00",
"_  c #90E400",
"`  c #80CC00",
"'  c #74B400",
"]  c #609C00",
"[  c #D8FCD8",
"{  c #BCFCB8",
"}  c #9CFC9C",
"|  c #80FC7C",
" . c #60FC5C",
".. c #40FC40",
"X. c #20FC20",
"o. c #00FC00",
"O. c #00FC00",
"+. c #00EC00",
"@. c #00E000",
"#. c #00D400",
"$. c #04C800",
"%. c #04BC00",
"&. c #04B000",
"*. c #04A400",
"=. c #049800",
"-. c #048800",
";. c #047C00",
":. c #047000",
">. c #046400",
",. c #045800",
"<. c #044C00",
"1. c #044000",
"2. c #D8FCFC",
"3. c #B8FCFC",
"4. c #9CFCFC",
"5. c #7CFCF8",
"6. c #5CFCFC",
"7. c #40FCFC",
"8. c #20FCFC",
"9. c #00FCFC",
"0. c #00E4E4",
"q. c #00CCCC",
"w. c #00B4B4",
"e. c #009C9C",
"r. c #008484",
"t. c #007070",
"y. c #005858",
"u. c #004040",
"i. c #5CBCFC",
"p. c #40B0FC",
"a. c #20A8FC",
"s. c #009CFC",
"d. c #008CE4",
"f. c #007CCC",
"g. c #006CB4",
"h. c #005C9C",
"j. c #D8D8FC",
"k. c #B8BCFC",
"l. c #9C9CFC",
"z. c #7C80FC",
"x. c #5C60FC",
"c. c #4040FC",
"v. c #2024FC",
"b. c #0004FC",
"n. c #0000FC",
"m. c #0000EC",
"M. c #0000E0",
"N. c #0000D4",
"B. c #0000C8",
"V. c #0000BC",
"C. c #0000B0",
"Z. c #0000A4",
"A. c #000098",
"S. c #000088",
"D. c #00007C",
"F. c #000070",
"G. c #000064",
"H. c #000058",
"J. c #00004C",
"K. c #000040",
"L. c #282828",
"P. c #FCE034",
"I. c #FCD424",
"U. c #FCCC18",
"Y. c #FCC008",
"T. c #FCB400",
"R. c #B420FC",
"E. c #A800FC",
"W. c #9800E4",
"Q. c #8000CC",
"!. c #7400B4",
"~. c #60009C",
"^. c #500084",
"/. c #440070",
"(. c #340058",
"). c #280040",
"_. c #FCD8FC",
"`. c #FCB8FC",
"'. c #FC9CFC",
"]. c #FC7CFC",
"[. c #FC5CFC",
"{. c #FC40FC",
"}. c #FC20FC",
"|. c #FC00FC",
" X c #E000E4",
".X c #C800CC",
"XX c #B400B4",
"oX c #9C009C",
"OX c #840084",
"+X c #6C0070",
"@X c #580058",
"#X c #400040",
"$X c #FCE8DC",
"%X c #FCE0D0",
"&X c #FCD8C4",
"*X c #FCD4BC",
"=X c #FCCCB0",
"-X c #FCC4A4",
";X c #FCBC9C",
":X c #FCB890",
">X c #FCB080",
",X c #FCA470",
"<X c #FC9C60",
"1X c #F0945C",
"2X c #E88C58",
"3X c #DC8854",
"4X c #D08050",
"5X c #C87C4C",
"6X c #BC7848",
"7X c #B47044",
"8X c #A86840",
"9X c #A0643C",
"0X c #9C6038",
"qX c #905C34",
"wX c #885830",
"eX c #80502C",
"rX c #744C28",
"tX c #6C4824",
"yX c #5C4020",
"uX c #543C1C",
"iX c #483818",
"pX c #403018",
"aX c #382C14",
"sX c #28200C",
"dX c #600064",
"fX c #006464",
"gX c #006060",
"hX c #00001C",
"jX c #00002C",
"kX c #302410",
"lX c #480048",
"zX c #500050",
"xX c #000034",
"cX c gray11",
"vX c #4C4C4C",
"bX c gray36",
"nX c gray25",
"mX c gray19",
"MX c #343434",
"NX c #D8F4F4",
"BX c #B8E8E8",
"VX c #9CDCDC",
"CX c #74C8C8",
"ZX c #48C0C0",
"AX c #20B4B4",
"SX c #20B0B0",
"DX c #00A4A4",
"FX c #009898",
"GX c #008C8C",
"HX c #008484",
"JX c #007C7C",
"KX c #007878",
"LX c #007474",
"PX c #007070",
"IX c #006C6C",
"UX c #980088",
/* pixels */
"iXiXiXiXiXiXiXiXiXiXiXiXiXiXiXiXiXiXiXiXiXiXiXiXiXiXiXiXiXiXiXiXiXiXiXiXiXiXiXiXiXiXiXiXiXiXiXiXiXiXiXiXiXiXsXsXiXcXsXcXcXiXiXiX",
"8X8X8X8X8XwXwXwX8XwXeXrXrXeXeXeXeXeXwX8X8X8X8X8XwXwXwXwXeXeXeXeXeXeXeXeXwXwXeXrXrXrXrXrXeXwX8X8X8X8X8X8X8XrXrXrXrXmXrXmXcXyXrXrX",
"8XwXwXeXeXeXeXeXeXeXeXeXeXeXwXwX8X8X8X8X8XwXeXeXeXeXeXeXrXrXrXeXeXeXeXeXeXwXwXeXrXrXrXrXeXeXeXeXeXwX8X8X8XrXrXuXuXkXyXcX  uXuXyX",
"uXiXiXiXiXiXiXiXiXiXyXeXeXeXeXeXeXyXuXuXuXuXuXuXiXiXiXiXuXuXuXuXuXuXuXiXiXiXiXuXyXyXuXiXiXiXuXuXuXuXuXyXrXpXpXpXcXiXL.cXyXyXyXyX",
"uXyXyXyXyXyXyXyXuXiXiXiXiXiXiXiXiXiXiXiXuXuXuXuXuXuXuXyXyXrXrXrXrXrXrXrXyXuXuXiXuXuXyXrXyXuXuXyXyXrXeXeXpXpXpXsXcXiXcXcXuXiXiXiX",
"uXuXuXuXiXiXuXuXyXrXyXyXyXyXyXyXyXyXrXrXrXrXrXrXrXyXuXuXiXiXiXuXyXyXrXrXrXrXyXuXuXuXiXiXiXuXeXeXeXeXyXuXsXsXsXsXcXiXcXcXiXuXuXuX",
"rXrXrXyXuXuXiXiXiXuXuXyXyXuXyXrXrXyXuXuXuXuXuXuXiXiXiXiXiXiXiXiXiXiXiXiXuXyXrXrXrXyXuXuXiXiXuXuXuXiXiXiXsXsXsXsXcXkXcX  yXyXrXrX",
"uXuXuXuXyXrXrXuXiXiXiXiXiXiXuXeXeXeXeXrXrXuXiXiXuXuXuXiXiXiXiXuXyXrXrXuXuXuXuXyXyXyXrXrXeXrXyXuXyXyXyXrXpXpXpXpXe kXcX  uXiXiXiX",
"iXiXiXiXiXiXiXuXyXyXuXiXiXiXiXiXiXiXiXiXuXuXiXiXuXyXyXuXuXuXuXuXuXuXuXyXrXyXuXiXuXyXyXuXuXuXuXuXrXrXyXuXsXsXsXcXe e   iXiXiXiXiX",
"iXiXiXiXiXiXiXiXiXiXiXiXiXiXiXiXiXiXiXiXiXiXiXiXiXiXiXiXiXiXiXiXiXiXiXiXiXiXiXiXiXiXiXiXiXiXiXiXiXiXiXsXsXsXsXcXe e   iXiXiXiXiX",
"cXe e   cXcX      cXcXcXcXcXcX      cXcXcXcXcX    cXcXcXcXcXcXcXcXcXcXcX    cXcXcXcXcXcX    cXcXcXcXcX        cXkXcX  cXcX  sXcX",
"cXsXkX                                                                                          cX            cXkXcX    cX  iXe ",
"e sXkX            sXcX            sX    sX  sX    sXcXcXcXcXcXsX  cX  cX    sXcX        sX  sXsXcX            cXkXcX  sXcX  uXsX",
"sXpXiXsXsXsX        cX                  cXsX        cXcXcXcXcX    cXcXcXsX    cXcXcX            cX  cX      cXe e cX    cX  yXe ",
"e iXyX  cXcXcXsXcXcXcXcXcX                  cXcXcXcXcXcXcXcXcXcXcXcXcXcXcXcXcXcXcXcXcXcXcXcXcXcXcXcXcX      cXe e   cXcXcX  yXe ",
"e iXyX  cXcXcXsXcXcXcXcXsX                    sXcXcXcXcXcXcXcXcXcXcXcXcXcXcXcXcXcXcXcXcXcXcXcXcXcXcX    sX  cXe cX  sXcXcX  yXe ",
"e uXyX  cXcXcXsXcXcXcXcXcX  cXcX            cXcXcXcXcXcXcXcXcXcXcXcXsXcXcXcXcXcXcXcXcXcXcXcXcXcXcXcXcX      cXkXcX  sXcXcX  uXe ",
"pXuXuX  cXcXcXsXcXcXcXcX                    cXsXcXcXcXcXcXcXcXcXcXcXsXcXsXcXcXcXcXcXcXcXcXcXcXcXcXcXcX      cXkXcX  sXcXcX  iXe ",
"pXuXuXcXcXcXcXsXcXcXcXcX                    cXsXcXcXcXcXcXcXcXcXcXcXcXcXsXcXcXcXcXcXcXcXcXcXcXcXcXcXcXsX    e kXcX  sXcXcX  iXe ",
"pXiXiXsXuXiXiXpXsXiXuXiXuXiXiXyXiXiXuXuXuXyXiXpXe sXiXuXuXuXyXiXiXiXyXuXiXsXiXiXiXiXuXyXiXiXiXuXiXiXsXsXcXcXe kX  uXiXuXiXcXiXe ",
"pXiXwXpXrXrXyXyXyXyXuXuXuXuXuXuXuXuXyXrXrXrXyXuXuXyXyXrXrXrXeXwXqXqXqX8XqXwXwXeXrXrXyXyXuXyXrXyXyXsXsXsXpXcXe e   yXuXrXrXcXpXe ",
"pXiXyXsXyXrXrXrXrXyXuXuXuXuXuXiXuXuXrXeXrXrXrXeXeXwXwXrXuXpXuXuXuXuXuXuXuXuXuXyXrXrXrXuXuXuXyXrXrXpXpXsXsXcXkXcX  yXuXuXuXcXpXe ",
"pXiXsXcXsXsXsXsXsXsXcXcXsXsXsXsXsXsXsXsXsXsXsXsXsXsXsXsXsXsXsXsXsXsXsXsXsXsXsXsXsXsXsXsXsXsXsXsXsXcXcXcXcXcXe cX  sXsXsXsX  pXe ",
"pXiXuX  e                                                                                                 cXkXcX            uXsX",
"e iXyXsXe                                                             e e iXeXyXeXeXe e                 cXe e cX            yXe ",
"pXiXyX  e cXy.u.mXmXu.cXcXcX                                    cXe iXe e e e e e e e e e yXcX          cXe e           cX  yXe ",
"pXiXyX  e cXu.y.7 CXCXcXcXcX      cXcXcXcXcXcX      cXcXcXcXcXcXcXiXe pXiXiXpXpXtXyXpXiXpXe e cXcXcXcXcXcXe cX  cXcXcXcXcX  yXe ",
"pXiXeX  e cXmXmXu.u.u.cXcXcX      cXcXcXcXcXcX      cXcXcXcXcXcXe iXqXtXiXpXpXpXiXiXiXe yXeXcXe cXcXcXcXcXkXcX  e vXcXcXcX  uXe ",
"pXiXeX  e cXcXmXu.$ vXcXcXcX      cXcXcXcXcXcX      cXcXcXcXcXcXiXe qXpXtX0X0XtXqXqXtXpXiXpXe e e cXcXcXcXe cX  7 nXcXcXcX  iXe ",
"pXiXeXcXe cXcXmXy.7 $ cXcXcX    cXcXcXcXcXcXcXcX  cXcXcXcXcXcXe pXtXeXiXtXqX7XtXeXtXiXpXpXiXe e e cXcXcXe e cX  kXe cXcXcX  iXe ",
"pXiXeXsXe cXmXmXy.CX$ cXcXcX    uXL.e cXcXcXcXcXuXiXkXcXcXcXcXe e tXtXtXeXqXqXtXtXtXtXpXe pXe e cXcXcXcXe e   kXvXcXcXcXcX  iXe ",
"iXiXeXpXe cXy.q y.SX$ cXcXcX    SXCXSXcXcXcXcXcXQ Q Q cXcXcXnXpXe iXpXyXeXeXqXtXyXiXiXpXe e e e q cXcXcXe cX  pXvXcXcXcXcX  pXe ",
"iXuXeXsXe cXq L.$ CXCXu.cXcX    SXSXh.cXcXcXcXcX! Q ~ cXcXcXe 7 5 5 $ e e iXiXe e iXe e e nXnXq mXe cXcXe cX  pX7 e cXcXcX  pXe ",
"iXuXuXcXe bXu.SXCXCXJ CXu.cX    x.x.h.cXcXcXcXcX! ! pXcXcXcXe nXbX4 6 4 4 4 5 5 5 5 7 bXnXq 6 q cXe cXcXkXcX  vX5 nXkXcXcX  pXe ",
"iXyXuX  e vXe L.y.7 CXSXu.cXcXcXz.z.y.cXcXcXcXcX! Q kXcXcXcXe uXpXe nXnXnX$ q $ $ $ L.mXmXe e e   e cXcXe cX  bX7 vXnXkXcX  sXe ",
"iXyXyX  e y.e e L.y.6 y.mXcXcXSXz.SXh.h.cXcXcX! ! ! ~ ! cXcXe iXtXeXpXyXyXiXyXyXpXe e e e pXe e   e cXe e   bX5 4 4 5 kXcX  sXe ",
"pXrXyX  e mXcXcXe u.y.mXmXcXh.z.CXz.h.e.e.cX! ! Q ! ! ~ Q cXe iXyXqXiXqX0XyXeXtXiXpXe e e pXe e   cXcXe e cXF eXeXwXyXe cX  sXe ",
"pXrXyX  e L.cXcXe mXq e mXcXz.CXJ CXh.h.SXcX! Q J W ~ pX! cX$ iXyXeXiXeXqXtXeXtXiXpXpXe e pXe e cXcXcXe cX  F F D D uXe cX  sXe ",
"pXyXeX  e L.cX  e L.L.e mXcXz.h.CXSXh.h.h.cX! ! Q ! uXkX~ cXbX$ iXiXe eXeXtXtXtXiXpXpXe e e e e q e cXe cX  f f F F g e cX  iXe ",
"pXuXeX  e L.cX  e L.L.e mXcXz.h.x.h.h.h.h.cX! ~ ! ~ pXpXpXcXq 7 4 4 6 e e e pXpXe e e e e q q mXe cXe e cX  f f f f g e cX  iXe ",
"pXuXeX  e L.cXcXcXe L.e mXcXz.h.h.h.h.q h.cX! ~ ~ ~ pXkXpXcXcX$ bX4 # # 4 7 5 7 $ $ $ nXq nXq mXcXcXe e cX  f f f f g e cX  iXe ",
"pXuXeX  e L.e e e e e e L.cXz.h.h.h.h.q h.cX! ~ ~ pXkXsXkXcXcXpXe e nXnXnX7 L.nXnXnXL.mXmXe e sXe cXe cX  k f f f f k cXcX  iXe ",
"e uXeX  e y.e e cXcXe L.L.cXSXh.h.h.h.q h.cX~ ~ pXpXkXsXkXcXcXcXe e e e e e e pXpXpXpXe sXe sXsXcXcXe cX  k f f f f k e cX  iXe ",
"e uXeX  e L.e e e e e e L.sXh.h.h.h.h.q h.sX~ pXpXkXL.sXkXcXsXsXe e iXe pXpXe iXe iXiXe e e e sXsXcXe cX  k f f f f k cXcX  iXe ",
"pXiXyXsXe e L.mXq q mXL.e e L.y.y.y.q q e e e kXkXmXL.kXe e e e e e iXe e e e e e iXpXe e sXsXsXsXcXe cX  pXe e e cXcXcXe   iXe ",
"pXuXuXcXe e e e e e e e e e e e e e e e e e e e e e e e e e e e sXsXsXsXe e e e e e e sXsXsXe e cXcXe cXe e e e e e e e e   pXe ",
"iXuXuXcXuXuXuXuXuXuXyXyXyXuXuXuXuXuXuXuXuXyXyXyXyXyXuXuXuXuXuXuXuXyXrXrXyXyXuXuXyXyXyXyXyXyXrXyXcXe cX  uXuXuXuXyXuXyXyXuX  pXe ",
"pXuXyX  iXpXpXpXpXpXiXiXuXuXiXiXpXpXpXpXpXpXpXiXiXiXiXiXuXuXuXiXiXiXpXpXpXpXpXiXiXiXiXiXiXiXpXiXcXe cX  yXyXiXiXpXiXuXiXiXsXpXe ",
"pXuXuXcXe e e e e e e e e e e e e e e e e e e e e e e e e e e e e e e e e e e e e e e e cXcXcXcXcXe cX  e e e e e e e e e   pXe ",
"pXuXuXcXcXcXcXcXcXcX  cXyXiXpXcXcXcXcXcXcXcXcXcXcXcXcXcX        cXcXcXcXcXcXcXcXcX  cXiXuXe e cXe iXcXcXcX      cXcXcXcXcXcXpXe ",
"uXuX  cXcXcXcXcXcXcX    yXpXiX  cXcXcXcXcXcXcXcXcXcXcXcX        cXcXcXcXcXcXcXcXcX  cXyXeX~ rXiXiXuXcXcXsX      sXcXcXcXcXcXpXe ",
"yXpXsXcXcXcXcXcXcXcXcX  uXiXe   cXcXsXcXcXcXcXcXcXcXcXcX        cXcXcXcXcXcXcXcXcX  uXyXeXyXyXuXiXe cXcXsX    cXcXcXcXcXcXcXpXe ",
"yXpXcXcXcXcXcXcXcXcXcX  uXpXe   cXcXcXcXcXcXcXcXcXcXcXcX        cXcXcXcXcXcX  cXcX  uXiXuXrXe pXe cXcXcXsX    sXcXcXcXcXcXcXiXe ",
"uXpXcX  cXcXcXcXpX  cX  cXcXcXcXbXq e e nXcXcXcX  cXe nXcXcX  cX  yXe yXe pXiXe uXiXe pXcXcXL.cX    L.L.L.mXkXyXsXcXcXcXcXuXuXe ",
"rX7 5 cXsXsXL.L.cXcXL.q bXmXq q bXe e iXiXpXL.iX~ cXL.q 7 cXe   pXuXe yXe e uXsXyXpXcXpXcXcXe cX    L.L.L.mXuXiXcXcXcXcXcXyXrXe ",
"yXmXbXcXsXiXL.mXvXbXbXy.y.vXvXvX$ cXL.uXyXrXrXrXyXuXiXpXe q     sXcX  pXiXpX~ e uXpXcXuXcXcXe cX    cXcXcXpXeXsXcXcXcXcXcXpXyXe ",
"uXpX  mX$ bX$ vXq q q q y.y.y.vXvXcXe L.L.pX~ uXuX~ yXyX~ uXuX~ iXcXcXcXcXsXkXcXcXcXcXpXL.cXL.L.  cXcXcXcXq yXcXcXcXcXcXcXcXyXe ",
"eXyXL.bXq nXq q y.y.y.vXy.y.y.h.h.cXL.cXcXcXcXe e L.L.pXpXiXiXuXuXuXuXyXyXyXuXsXcXsXsXsXcX  e L.  e sXe sXbXkXcXcXcXcXcXcXe uXe ",
"yXuXL.4 5 bXvXh.q mXq h.vXvXy.vXy.L.L.iXiXiXL.cXcXcXcXcXe e L.L.pXpXiX~ uXyX~ yXrXrXrXrXrXsXcXmX  L.e e sXrXsXcXcXcXcXcXcXpXyXe ",
"uXuXrXmXvX7 7 6 bXvXy.q mXmXq y.y.q L.iXiXL.L.iX~ e sXiXiXcXcXcXcXe e e e L.pXiXuXrXyXuXe cX  cXcXsXsXsXkXvXcXcXcXcXcXcXcXsXuXe ",
"iXuXyXiXL.L.mXq vXbXbXh.h.y.y.q mXmXL.iXL.L.L.iXiXe sXsXiXL.cXiXsXsX    cXcXcXcXe e e e cXcXcXcXcXsXkXkXkXq cXcXcXcXcXcXcXsXyXe ",
"iXuXyXL.L.L.L.L.L.L.mXq vXy.h.bX7 7 L.L.L.L.L.L.L.L.sXsXL.L.L.L.cXcX        kX  cXcXcXcXcXcXcXcXcXkXiXuXuXiXcXcXcXcXcXcXcXcXyXe ",
"pXuXrXcXcXcXcXcXcXcXcXcXcXcXcXL.L.L.e cXcXcXcXcXcXcXcXcXcXcXcXcXcXcXcXcXcXcXcXcXcXcXcXcXcXcXcXcXcXcXcXsXiXL.cXcXcXcXcXcXcXpXuXe ",
"pXuXrXcXcXcXcXcXcXcXcXcXcXcXcXcXcXcXcXcXcXcXcXcXcXcXcXcXcXcXcXcXcXcXcXcXcXcXcXcXcXcXcXcXcXcXcXcXcXcXcXcXcXcXcXcXcXcXcXcXcXcXuXe "
};
