/* XPM */
static char *_509139037861[] = {
/* columns rows colors chars-per-pixel */
"64 64 256 2 ",
"   c black",
".  c #0000A8",
"X  c #00A800",
"o  c #00A8A8",
"O  c #A80000",
"+  c #A800A8",
"@  c #A85400",
"#  c gray66",
"$  c gray33",
"%  c #5454FC",
"&  c #54FC54",
"*  c #54FCFC",
"=  c #FC5454",
"-  c #FC54FC",
";  c #FCFC54",
":  c gray99",
">  c #ECECEC",
",  c gainsboro",
"<  c #D0D0D0",
"1  c #C0C0C0",
"2  c #B4B4B4",
"3  c gray66",
"4  c #989898",
"5  c gray55",
"6  c #7C7C7C",
"7  c gray44",
"8  c #646464",
"9  c gray33",
"0  c #484848",
"q  c gray22",
"w  c #2C2C2C",
"e  c #202020",
"r  c #FC0000",
"t  c #EC0000",
"y  c #E00000",
"u  c #D40000",
"i  c #C80000",
"p  c #BC0000",
"a  c #B00000",
"s  c #A40000",
"d  c #980000",
"f  c #880000",
"g  c #7C0000",
"h  c #700000",
"j  c #640000",
"k  c #580000",
"l  c #4C0000",
"z  c #400000",
"x  c #FCD8D8",
"c  c #FCB8B8",
"v  c #FC9C9C",
"b  c #FC7C7C",
"n  c #FC5C5C",
"m  c #FC4040",
"M  c #FC2020",
"N  c #FC0000",
"B  c #FCA85C",
"V  c #FC9840",
"C  c #FC8820",
"Z  c #FC7800",
"A  c #E46C00",
"S  c #CC6000",
"D  c #B45400",
"F  c #9C4C00",
"G  c #FCFCD8",
"H  c #FCFCB8",
"J  c #FCFC9C",
"K  c #FCFC7C",
"L  c #FCF85C",
"P  c #FCF440",
"I  c #FCF420",
"U  c #FCF400",
"Y  c #E4D800",
"T  c #CCC400",
"R  c #B4AC00",
"E  c #9C9C00",
"W  c #848400",
"Q  c #706C00",
"!  c #585400",
"~  c #404000",
"^  c #D0FC5C",
"/  c #C4FC40",
"(  c #B4FC20",
")  c #A0FC00",
"_  c #90E400",
"`  c #80CC00",
"'  c #74B400",
"]  c #609C00",
"[  c #D8FCD8",
"{  c #BCFCB8",
"}  c #9CFC9C",
"|  c #80FC7C",
" . c #60FC5C",
".. c #40FC40",
"X. c #20FC20",
"o. c #00FC00",
"O. c #00FC00",
"+. c #00EC00",
"@. c #00E000",
"#. c #00D400",
"$. c #04C800",
"%. c #04BC00",
"&. c #04B000",
"*. c #04A400",
"=. c #049800",
"-. c #048800",
";. c #047C00",
":. c #047000",
">. c #046400",
",. c #045800",
"<. c #044C00",
"1. c #044000",
"2. c #D8FCFC",
"3. c #B8FCFC",
"4. c #9CFCFC",
"5. c #7CFCF8",
"6. c #5CFCFC",
"7. c #40FCFC",
"8. c #20FCFC",
"9. c #00FCFC",
"0. c #00E4E4",
"q. c #00CCCC",
"w. c #00B4B4",
"e. c #009C9C",
"r. c #008484",
"t. c #007070",
"y. c #005858",
"u. c #004040",
"i. c #5CBCFC",
"p. c #40B0FC",
"a. c #20A8FC",
"s. c #009CFC",
"d. c #008CE4",
"f. c #007CCC",
"g. c #006CB4",
"h. c #005C9C",
"j. c #D8D8FC",
"k. c #B8BCFC",
"l. c #9C9CFC",
"z. c #7C80FC",
"x. c #5C60FC",
"c. c #4040FC",
"v. c #2024FC",
"b. c #0004FC",
"n. c #0000FC",
"m. c #0000EC",
"M. c #0000E0",
"N. c #0000D4",
"B. c #0000C8",
"V. c #0000BC",
"C. c #0000B0",
"Z. c #0000A4",
"A. c #000098",
"S. c #000088",
"D. c #00007C",
"F. c #000070",
"G. c #000064",
"H. c #000058",
"J. c #00004C",
"K. c #000040",
"L. c #282828",
"P. c #FCE034",
"I. c #FCD424",
"U. c #FCCC18",
"Y. c #FCC008",
"T. c #FCB400",
"R. c #B420FC",
"E. c #A800FC",
"W. c #9800E4",
"Q. c #8000CC",
"!. c #7400B4",
"~. c #60009C",
"^. c #500084",
"/. c #440070",
"(. c #340058",
"). c #280040",
"_. c #FCD8FC",
"`. c #FCB8FC",
"'. c #FC9CFC",
"]. c #FC7CFC",
"[. c #FC5CFC",
"{. c #FC40FC",
"}. c #FC20FC",
"|. c #FC00FC",
" X c #E000E4",
".X c #C800CC",
"XX c #B400B4",
"oX c #9C009C",
"OX c #840084",
"+X c #6C0070",
"@X c #580058",
"#X c #400040",
"$X c #FCE8DC",
"%X c #FCE0D0",
"&X c #FCD8C4",
"*X c #FCD4BC",
"=X c #FCCCB0",
"-X c #FCC4A4",
";X c #FCBC9C",
":X c #FCB890",
">X c #FCB080",
",X c #FCA470",
"<X c #FC9C60",
"1X c #F0945C",
"2X c #E88C58",
"3X c #DC8854",
"4X c #D08050",
"5X c #C87C4C",
"6X c #BC7848",
"7X c #B47044",
"8X c #A86840",
"9X c #A0643C",
"0X c #9C6038",
"qX c #905C34",
"wX c #885830",
"eX c #80502C",
"rX c #744C28",
"tX c #6C4824",
"yX c #5C4020",
"uX c #543C1C",
"iX c #483818",
"pX c #403018",
"aX c #382C14",
"sX c #28200C",
"dX c #600064",
"fX c #006464",
"gX c #006060",
"hX c #00001C",
"jX c #00002C",
"kX c #302410",
"lX c #480048",
"zX c #500050",
"xX c #000034",
"cX c gray11",
"vX c #4C4C4C",
"bX c gray36",
"nX c gray25",
"mX c gray19",
"MX c #343434",
"NX c #D8F4F4",
"BX c #B8E8E8",
"VX c #9CDCDC",
"CX c #74C8C8",
"ZX c #48C0C0",
"AX c #20B4B4",
"SX c #20B0B0",
"DX c #00A4A4",
"FX c #009898",
"GX c #008C8C",
"HX c #008484",
"JX c #007C7C",
"KX c #007878",
"LX c #007474",
"PX c #007070",
"IX c #006C6C",
"UX c #980088",
/* pixels */
"uXqXrX  vXq q q q q q q q q q q q mXq q q q q q q q L.cXkXuXiXiXyXq mXmXmXmXmXq vX$ $ vXq q q q mXmXL.L.mXmXmXmXmXmXmXcXcXe e iX",
"iXwXyX  7 $ 7 7 vXnXvX$ $ $ 7 7 vXq $ 7 $ $ 7 $ 7 $ $ cXsXiXiXuXyXq vXnXvXq q $ 5 4 5 7 7 7 $ $ $ q mXq q q q q nXq q mXcXe e iX",
"uXeXyXsXq q q q mXmXq q q q q q mXe mXq q q q q q mXe   kXiXe iXyXq mXq mXmXq q $ bX$ $ $ vXq q q mXmXmXmXmXmXq mXmXmXcX  e e uX",
"uXwXyXe q q q q mXq q q q q nXq mXmXmXq q q q q q L.cXcXkXiXkXuXyXq mXmXmXmXL.q q mXq q $ q mXL.mXmXL.L.mXmXq q mXe e cXcXe e iX",
"uXeXyXkXq q q q mXq q q q q nXq mXmXmXq q q q q q L.cXcXkXiXe iXeXyXmXmXmXmXL.q q mXq q $ q mXL.mXmXL.L.mXmXq q mXe e cXsXe pXiX",
"uXeXyXmXnXq q q mXq q q q q q q q q q q q q q q q L.cXcXcXpXiXiXwXyXmXmXL.L.e q q e e mXq q q mXL.L.e L.mXq q q mXmXL.cXcXpXe uX",
"uXeXyXmX$ q q q mXq q q q q q mXmXq mXq q q q q q e cXcXsXiXiXiXyXq mXmXe e L.L.q e e L.mXq q q mXe e e cXe L.L.e mXq cXcXe e iX",
"iXqXrXmX$ q q q mXq q q q q q mXmXq mXq q q q q q e cXcXcXiXuXiXyXq mXmXe e L.L.q e e L.mXq q q mXe e e cXe L.L.e mXq cXcXe e iX",
"iXqXrXmX$ vXq q mXq q mXmXq q mXmXq q q q q q q q L.cXcXsXiXuXiXq q q mXL.L.L.e L.e cXe mXmXmXq q L.L.mXe cXcXcXe L.mXcXcXe e iX",
"uXeXrXkX$ vXq q mXq q mXmXq q mXmXq q q q q q q q L.cXcXkXiXuXuXq q q mXL.L.L.e L.e cXe mXmXmXq q L.L.mXe cXcXcXe L.mXcXcXe e iX",
"uXyXrXkXbX$ q q q q q L.mXq q q q q q q q q q q q L.cXcXkXpXuXuXq q q q mXmXe e e e e e mXmXL.mXmXmXmXmXL.e cXcXcXe e cXcXe pXiX",
"pXwXyXe $ $ nXq q q q mXq vXq q q q q q q q q q q L.cX  pXiXiXuXq q q q mXmXL.e e e e e L.mXL.L.L.mXq mXL.e e cXcXcXe cXcXe e iX",
"uXiXyXe $ $ vX$ vXnXq q q q q q q q $ $ q q mXmXmXcXcXcXe iXiXuXyXq mXmXL.e e e L.L.mXmXq L.e e e L.mXL.mXe L.e e e e cXcXe pXiX",
"uXyXyXe q q q q q q e L.L.L.mXL.mXmXq mXmXe e e e cX  cXcXiXiXiXyXq e e e cXcXe cXe e e e cXcXcXcXe e e e e e cXcXcXcX  cXe pXiX",
"uXyXyXe L.mXmXmXmXL.e cXcXcXcXcXcXe e e e cXcXcXcXcX  cXcXiXuXe yXq cXcXcXcXcXcXcXcXcXcXcXcXcXcXcXcXcXcXcXcXcXcXcXcXcX  cXe pXiX",
"uXq rXL.L.e q L.mXL.e e cXe e cXe e e e e e cXcXcXcXcXcXe iXuXe q q e e cXcXcXcXcXcXcXcXcXcXcXcXcXcXcXe e e e cXcXcXcX  cXe iXpX",
"iXeXrXe $ bXbX7 bXbX$ vXvXvX$ q mXe q q vXq q q mXL.e cXe iXiXe q q q q q q q q q q q mXmXmXL.cXcXe mXq q q q q mXmXL.cXcXe iXiX",
"uXyXrXe 7 7 5 7 5 7 7 7 vX7 7 vXe L.q 7 $ vXvXvXq mXmXcXcXiXiXe yXq $ vXnXvXvXvXvXvXq q q q q cXcXe vX$ $ $ $ vXq q q cXcXe iXiX",
"uXyXrXe vX$ vX$ $ $ q q q q 7 $ e e e q q mXmXe e cXcXcXcXkXiXe yXq q q q L.mXmXmXq mXe L.q q cXcXcXL.L.mXmXmXmXe e cX    e pXiX",
"iXyXrXe q $ $ $ vXnXnXq q q bXvXe cXe q q mXmXL.e cXcXcXcXkXiXe yXq L.q q q q mXmXmXmXe mXmXq cXcXe L.L.mXmXmXmXL.e e   cXe iXuX",
"uXyXrXpXmXq vX$ q vXvXq q q vXvXe e e q q q mXL.e e cXcXcXpXuXe eXq L.mXmXq q mXq mXmXL.L.mXq e cXe mXmXmXmXmXmXe e e cX  e iXiX",
"iXyXeXpXL.q q $ vX$ vXq q q bXvXe e e q q mXmXmXL.e cXcXcXpXuXpXyXq mXmXmXmXq q q mXmXL.L.mXq e cXcXe mXmXmXmXq mXe L.cX  pXpXiX",
"uXeXrXpXmXmXq $ $ nXq q q q vXvXe cXe q q mXmXmXmXL.cXcXcXiXuXe yXq q q mXq q q mXmXmXmXL.mXq e cXcXe L.mXL.mXmXmXq L.cX  iXiXiX",
"uXyXrXe mXmXq $ $ q mXmXmXq bXvXe cXe q q q mXmXq L.cXcXcXiXiXe yXq q q mXmXq q L.mXq mXL.mXq e cXcXL.e e e L.L.L.mXmXcXcXpXiXiX",
"uXq rXe mXmXq $ $ q mXmXmXq bXvXe cXe q q q mXmXq L.cXcXcXiXuXe yXq q q mXmXq q L.mXq mXL.mXq cXcXcXL.e e e L.L.L.mXmXcXcXpXuXpX",
"iXq rXe mXq q q q q q q mXmXvXvXe cXe q q mXL.L.mXL.cXcXcXe iXe yXq mXq mXmXq q mXmXmXL.L.mXq cXcXe e e e e L.e e e mXcX  pXiXiX",
"iXyXrXe q q q q q q q mXL.mXbXvXe cXmXq mXmXL.e mXe cXcXcXe uXe eXq mXq mXe q q e mXL.q q q $ e cXe e L.L.L.q mXe e L.cX  iXuXiX",
"uXyXrXe nXq q q q q mXe L.q vXvXe cXmXq q q mXe e cXcXcXcXiXuXe yXq q mXe L.q mXL.mXe mXmXq $ e cXmXL.mXmXq q q mXL.e cX  pXiXiX",
"iXyXrXmXnXq q q q q mXe L.q vXq e cXmXq q q mXe e cXcX  cXe iXe eXq q mXe L.q mXL.mXe mXmXmX$ e cXmXL.mXmXq q q mXL.e cX  iXiXe ",
"uXyXrXmXL.e L.mXL.L.L.e e e mXmXe cXL.e e e e cXcXcX  cXcXe iXe eXq L.e cXcXcXcXcXcXcXcXcXe e cXcXL.e e L.e e e mXe cXcX  iXiXkX",
"iXeXvXmXcXcXcXcXcXcXcXcXcXcXe e cXcXcXcXcXcXcXcXcX    cXcXcXe cXuXvXcXcXcXcXcXcXcXcXcXcXcXcXcXcXcXcXcXcXcXcXcXcXcXcXcX    iXiXe ",
"pXeXrXmXcXcXcXe e e cXcXcXcXe q cX  cXcXcXcXcXcXcX    cXsXe uXuXeXyXcXcX    cXcX  cX  cXcXcXe     cX  cXcXcXcXcXcX        sXe pX",
"iXeXrXkXvXq q q q q q q q q q q q mXq q q q q q q q L.cXcXpXiXuXeXyXmXmXmXmXmXq vX$ $ vXq q q q mXmXL.L.mXmXmXmXmXmXmXcX  iXiXe ",
"uXyXrXkX7 $ 7 7 vXnXvX$ $ $ 7 7 vXq $ 7 $ $ 7 $ 7 $ $ cXcXe iXuXwXyXvXnXvXq q $ 5 4 5 7 7 7 $ $ $ q mXq q q q q nXq q mX  iXiXkX",
"iXyXrXkXq q q q mXmXq q q q q q mXe mXq q q q q q mXe cXcXe uXuXeXyXmXq mXmXq q $ bX$ $ $ vXq q q mXmXmXmXmXmXq mXmXmXcX  iXiXe ",
"uXyXrXkXq q q q mXq q q q q nXq mXmXmXq q q q q q L.cXcXcXe iXiXwXyXmXmXmXmXL.q q mXq q $ q mXL.mXmXL.L.mXmXq q mXe e cX  pXiXiX",
"iXyXrXe q q q q mXq q q q q nXq mXmXmXq q q q q q L.cXcXcXe iXuXwXrXmXmXmXmXL.q q mXq q $ q mXL.mXmXL.L.mXmXq q mXe e cX  iXuXiX",
"iXq yXsXnXq q q mXq q q q q q q q q q q q q q q q L.cXcXcXe iXuXeXrXmXmXL.L.e q q e e mXq q q mXL.L.e L.mXq q q mXmXL.cX  pXiXiX",
"uXiXyXsX$ q q q mXq q q q q q mXmXq mXq q q q q q e cXcXcXe iXuXqXrXmXmXe e L.L.q e e L.mXq q q mXe e e cXe L.L.e mXq cX  pXuXpX",
"uXyXrXe $ q q q mXq q q q q q mXmXq mXq q q q q q e cXcXcXe iXiXwXyXmXmXe e L.L.q e e L.mXq q q mXe e e cXe L.L.e mXq cX  pXiXiX",
"uXeXrXpX$ vXq q mXq q mXmXq q mXmXq q q q q q q q L.cXcXcXe uXuXeXyXq mXL.L.L.e L.e cXe mXmXmXq q L.L.mXe cXcXcXe L.mXcX  iXiXiX",
"iXyXeXkX$ vXq q mXq q mXmXq q mXmXq q q q q q q q L.cXcXcXe iXuXwXyXq mXL.L.L.e L.e cXe mXmXmXq q L.L.mXe cXcXcXe L.mXcX  pXpXiX",
"uXyXrXkXbX$ q q q q q L.mXq q q q q q q q q q q q L.cXcXcXpXiXuXeXyXq q mXmXe e e e e e mXmXL.mXmXmXmXmXL.e cXcXcXe e cX  e iXiX",
"iXyXrXmX$ $ nXq q q q mXq vXq q q q q q q q q q q L.cXcXsXe uXuXeXyXq q mXmXL.e e e e e L.mXL.L.L.mXq mXL.e e cXcXcXe cXcXe iXuX",
"uXyXrXmX$ $ vX$ vXnXq q q q q q q q $ $ q q mXmXmXcXcXcXcXe iXuXeXyXmXmXL.e e e L.L.mXmXq L.e e e L.mXL.mXe L.e e e e cX  e pXiX",
"uXyXrXmXq q q q q q e L.L.L.mXL.mXmXq mXmXe e e e cX  cXcXe iXiXqXrXe e e cXcXe cXe e e e cXcXcXcXe e e e e e cXcXcXcX    e iXiX",
"iXeXrXkXL.mXmXmXmXL.e cXcXcXcXcXcXe e e e cXcXcXcXcX  cXcXe iXiXqXrXcXcXcXcXcXcXcXcXcXcXcXcXcXcXcXcXcXcXcXcXcXcXcXcXcX    e iXiX",
"uXq rXkXL.e q L.mXL.e e cXe e cXe e e e e e cXcXcXcXcXcXcXe iXuXeXrXe e cXcXcXcXcXcXcXcXcXcXcXcXcXcXcXe e e e cXcXcXcX  cXe iXpX",
"uXyXyXe $ bXbX7 bXbX$ vXvXvX$ q mXe q q vXq q q mXL.e cXcXpXiXuXyXrXq q q q q q q q q mXmXmXL.cXcXe mXq q q q q mXmXL.cX  e pXiX",
"uXyXyXe 7 7 5 7 5 7 7 7 vX7 7 vXe L.q 7 $ vXvXvXq mXmXcXcXe iXpXwXyX$ vXnXvXvXvXvXvXq q q q q cXcXe vX$ $ $ $ vXq q q cX  e pXiX",
"uXiXyXL.vX$ vX$ $ $ q q q q 7 $ e e e q q mXmXe e cXcXcXcXpXiXuXiXyXq q q L.mXmXmXq mXe L.q q cXcXcXL.L.mXmXmXmXe e cX  cXe pXiX",
"pXwXyXmXq $ $ $ vXnXnXq q q bXvXe cXe q q mXmXL.e cXcXcXcXpXiXuXyXyXL.q q q q mXmXmXmXe mXmXq cXcXe L.L.mXmXmXmXL.e e   cXe e iX",
"uXyXrXkXmXq vX$ q vXvXq q q vXvXe e e q q q mXL.e e cXcXcXpXiXuXyXyXL.mXmXq q mXq mXmXL.L.mXq e cXe mXmXmXmXmXmXe e e cXcXe pXiX",
"uXeXrXkXL.q q $ vX$ vXq q q bXvXe e e q q mXmXmXL.e cXcXcXiXpXuXq rXmXmXmXmXq q q mXmXL.L.mXq e cXcXe mXmXmXmXq mXe L.cX  e e iX",
"iXwXrXe mXmXq $ $ nXq q q q vXvXe cXe q q mXmXmXmXL.cXcXcXiXiXiXeXrXq q mXq q q mXmXmXmXL.mXq e cXcXe L.mXL.mXmXmXq L.cXcXe e iX",
"iXqXrXe mXmXq $ $ q mXmXmXq bXvXe cXe q q q mXmXq L.cXcXcXiXiXuXyXq q q mXmXq q L.mXq mXL.mXq e cXcXL.e e e L.L.L.mXmXcXcXe e iX",
"uXeXyXe mXmXq $ $ q mXmXmXq bXvXe cXe q q q mXmXq L.cXcXcXpXiXuXyXq q q mXmXq q L.mXq mXL.mXq cXcXcXL.e e e L.L.L.mXmXcXcXe e iX",
"e yXyXe mXq q q q q q q mXmXvXvXe cXe q q mXL.L.mXL.cXcXcXiXuXiXyXq mXq mXmXq q mXmXmXL.L.mXq cXcXe e e e e L.e e e mXcX  e cXe ",
"uXeXyXkXq q q q q q q mXL.mXbXvXe cXmXq mXmXL.e mXe cXcXcXiXiXuXyXq mXq mXe q q e mXL.q q q $ e cXe e L.L.L.q mXe e L.cXsXe pXiX",
"uXwXyXkXnXq q q q q mXe L.q vXvXe cXmXq q q mXe e cXcXcXsXpXiXiXyXyXq mXe L.q mXL.mXe mXmXq $ e cXmXL.mXmXq q q mXL.e cXcXe e iX",
"uXeXyXkXnXq q q q q mXe L.q vXq e cXmXq q q mXe e cXcXcXkXiXiXuXeXyXq mXe L.q mXL.mXe mXmXmX$ e cXmXL.mXmXq q q mXL.e cX  e e uX",
"iXwXyXmXL.e L.mXL.L.L.e e e mXmXe cXL.e e e e cXcXcX  cXsXiXiXuXyXq L.e cXcXcXcXcXcXcXcXcXe e cXcXL.e e L.e e e mXe cXcXcXe e iX",
"uXwXrXmXcXcXcXcXcXcXcXcXcXcXe e cXcXcXcXcXcXcXcXcX    cXsXuXpXuXq q cXcXcXcXcXcXcXcXcXcXcXcXcXcXcXcXcXcXcXcXcXcXcXcXcX  cXe e iX",
"uXeXrXmXcXcXcXe e e cXcXcXcXe q cX  cXcXcXcXcXcXcX    cXsXiXiXiXq q cXcX    cXcX  cX  cXcXcXe     cX  cXcXcXcXcXcX      cXe e iX"
};
