/* XPM */
static char *_509138939628[] = {
/* columns rows colors chars-per-pixel */
"64 64 256 2 ",
"   c black",
".  c #0000A8",
"X  c #00A800",
"o  c #00A8A8",
"O  c #A80000",
"+  c #A800A8",
"@  c #A85400",
"#  c gray66",
"$  c gray33",
"%  c #5454FC",
"&  c #54FC54",
"*  c #54FCFC",
"=  c #FC5454",
"-  c #FC54FC",
";  c #FCFC54",
":  c gray99",
">  c #ECECEC",
",  c gainsboro",
"<  c #D0D0D0",
"1  c #C0C0C0",
"2  c #B4B4B4",
"3  c gray66",
"4  c #989898",
"5  c gray55",
"6  c #7C7C7C",
"7  c gray44",
"8  c #646464",
"9  c gray33",
"0  c #484848",
"q  c gray22",
"w  c #2C2C2C",
"e  c #202020",
"r  c #FC0000",
"t  c #EC0000",
"y  c #E00000",
"u  c #D40000",
"i  c #C80000",
"p  c #BC0000",
"a  c #B00000",
"s  c #A40000",
"d  c #980000",
"f  c #880000",
"g  c #7C0000",
"h  c #700000",
"j  c #640000",
"k  c #580000",
"l  c #4C0000",
"z  c #400000",
"x  c #FCD8D8",
"c  c #FCB8B8",
"v  c #FC9C9C",
"b  c #FC7C7C",
"n  c #FC5C5C",
"m  c #FC4040",
"M  c #FC2020",
"N  c #FC0000",
"B  c #FCA85C",
"V  c #FC9840",
"C  c #FC8820",
"Z  c #FC7800",
"A  c #E46C00",
"S  c #CC6000",
"D  c #B45400",
"F  c #9C4C00",
"G  c #FCFCD8",
"H  c #FCFCB8",
"J  c #FCFC9C",
"K  c #FCFC7C",
"L  c #FCF85C",
"P  c #FCF440",
"I  c #FCF420",
"U  c #FCF400",
"Y  c #E4D800",
"T  c #CCC400",
"R  c #B4AC00",
"E  c #9C9C00",
"W  c #848400",
"Q  c #706C00",
"!  c #585400",
"~  c #404000",
"^  c #D0FC5C",
"/  c #C4FC40",
"(  c #B4FC20",
")  c #A0FC00",
"_  c #90E400",
"`  c #80CC00",
"'  c #74B400",
"]  c #609C00",
"[  c #D8FCD8",
"{  c #BCFCB8",
"}  c #9CFC9C",
"|  c #80FC7C",
" . c #60FC5C",
".. c #40FC40",
"X. c #20FC20",
"o. c #00FC00",
"O. c #00FC00",
"+. c #00EC00",
"@. c #00E000",
"#. c #00D400",
"$. c #04C800",
"%. c #04BC00",
"&. c #04B000",
"*. c #04A400",
"=. c #049800",
"-. c #048800",
";. c #047C00",
":. c #047000",
">. c #046400",
",. c #045800",
"<. c #044C00",
"1. c #044000",
"2. c #D8FCFC",
"3. c #B8FCFC",
"4. c #9CFCFC",
"5. c #7CFCF8",
"6. c #5CFCFC",
"7. c #40FCFC",
"8. c #20FCFC",
"9. c #00FCFC",
"0. c #00E4E4",
"q. c #00CCCC",
"w. c #00B4B4",
"e. c #009C9C",
"r. c #008484",
"t. c #007070",
"y. c #005858",
"u. c #004040",
"i. c #5CBCFC",
"p. c #40B0FC",
"a. c #20A8FC",
"s. c #009CFC",
"d. c #008CE4",
"f. c #007CCC",
"g. c #006CB4",
"h. c #005C9C",
"j. c #D8D8FC",
"k. c #B8BCFC",
"l. c #9C9CFC",
"z. c #7C80FC",
"x. c #5C60FC",
"c. c #4040FC",
"v. c #2024FC",
"b. c #0004FC",
"n. c #0000FC",
"m. c #0000EC",
"M. c #0000E0",
"N. c #0000D4",
"B. c #0000C8",
"V. c #0000BC",
"C. c #0000B0",
"Z. c #0000A4",
"A. c #000098",
"S. c #000088",
"D. c #00007C",
"F. c #000070",
"G. c #000064",
"H. c #000058",
"J. c #00004C",
"K. c #000040",
"L. c #282828",
"P. c #FCE034",
"I. c #FCD424",
"U. c #FCCC18",
"Y. c #FCC008",
"T. c #FCB400",
"R. c #B420FC",
"E. c #A800FC",
"W. c #9800E4",
"Q. c #8000CC",
"!. c #7400B4",
"~. c #60009C",
"^. c #500084",
"/. c #440070",
"(. c #340058",
"). c #280040",
"_. c #FCD8FC",
"`. c #FCB8FC",
"'. c #FC9CFC",
"]. c #FC7CFC",
"[. c #FC5CFC",
"{. c #FC40FC",
"}. c #FC20FC",
"|. c #FC00FC",
" X c #E000E4",
".X c #C800CC",
"XX c #B400B4",
"oX c #9C009C",
"OX c #840084",
"+X c #6C0070",
"@X c #580058",
"#X c #400040",
"$X c #FCE8DC",
"%X c #FCE0D0",
"&X c #FCD8C4",
"*X c #FCD4BC",
"=X c #FCCCB0",
"-X c #FCC4A4",
";X c #FCBC9C",
":X c #FCB890",
">X c #FCB080",
",X c #FCA470",
"<X c #FC9C60",
"1X c #F0945C",
"2X c #E88C58",
"3X c #DC8854",
"4X c #D08050",
"5X c #C87C4C",
"6X c #BC7848",
"7X c #B47044",
"8X c #A86840",
"9X c #A0643C",
"0X c #9C6038",
"qX c #905C34",
"wX c #885830",
"eX c #80502C",
"rX c #744C28",
"tX c #6C4824",
"yX c #5C4020",
"uX c #543C1C",
"iX c #483818",
"pX c #403018",
"aX c #382C14",
"sX c #28200C",
"dX c #600064",
"fX c #006464",
"gX c #006060",
"hX c #00001C",
"jX c #00002C",
"kX c #302410",
"lX c #480048",
"zX c #500050",
"xX c #000034",
"cX c gray11",
"vX c #4C4C4C",
"bX c gray36",
"nX c gray25",
"mX c gray19",
"MX c #343434",
"NX c #D8F4F4",
"BX c #B8E8E8",
"VX c #9CDCDC",
"CX c #74C8C8",
"ZX c #48C0C0",
"AX c #20B4B4",
"SX c #20B0B0",
"DX c #00A4A4",
"FX c #009898",
"GX c #008C8C",
"HX c #008484",
"JX c #007C7C",
"KX c #007878",
"LX c #007474",
"PX c #007070",
"IX c #006C6C",
"UX c #980088",
/* pixels */
"uXuXuXuXuXuXuXuXuXyXyXyXuXuXuXuXuXuXuXuXyXyXyXyXyXuXuXuXuXuXuXuXyXrXrXyXyXuXuXyXyXyXyXyXyXrXyXyXuXyXyXuXuXuXuXyXuXyXyXuXuXuXuXuX",
"kXiXiXiXpXpXpXpXpXiXiXuXuXiXiXpXpXpXpXpXpXpXiXiXiXiXiXuXuXuXiXiXiXpXpXpXpXpXiXiXiXiXiXiXiXpXiXiXpXiXiXyXyXiXiXpXiXuXiXiXiXkXiXiX",
"L.pXiXe uXuXuXe e   e e e e e e e e 8XyXyXyXyXyXpXe e e e e e e e e e e e e e e pXyXyXyXyXyX8Xe e e e e e e cXcXe e uXuXuXe iXL.",
"L.pXiXsXrXiXsX    cXcXrXwXwXuXcXcXwXuXe     e uXuX                              uXuXe     e uXwXcXcXuXwXwXrXcXcXcXcXsXiXrXsXiXL.",
"L.pXe sXiXsX      cXpXe pXuXwXuXwXuXe         e uX                              uXe         e uXwXuXwXuXpXe pXcX    cXsXiXsXpXL.",
"L.pXkXrXiX  e cXcXcXe     pXuXrXrXe           e uX                              uXe           e rXrXuXpXcXcXe cXcXcXsXe iXrXpXL.",
"L.pXe iXiXrXrXrXcXcX      cXuXrXrX        e uXuXe       cX    mX                e uXuXe         rXrXuXcX      cXcXrXrXrXiXiXpXL.",
"L.pXiXiXuXuXiXuXrXcXcX    cXpXuXuX                        L.    e           L.                  uXuXpXcX    cXcXrXuXiXuXuXiXiXL.",
"L.kXiXiXsX  cXiXiXrXcX    cXpXuXuX                        cXL.  cXe       L.cX                  uXuXpXcX    cXrXiXiXcX  sXiXiXL.",
"L.kXiXsX        iXrXe cX  cXpXuXpX    cX$ vXcXcX  L.        cXq   cX    L.cX      cX$ vXcXcX  cXpXuXpXcX    cXrXiXsXcX  cXsXiXL.",
"L.kXiX          iXuXcXcXcXcXpXuXe   e q cXq L.vXvXL.L.  e     cX  cX  L.  mXL.  e q cXq L.vXvXcXe uXuXcX    cXuXiXe cX    cXiXL.",
"L.pXuX      cXsXiXsXcXcXcXsXuXuX        L.L.cXL.cX  L.L.  cXL.  L.cXcXcXq L.        L.L.cXL.cX  cXuXuXe cX    sXiXsXsXcXcXcXuXL.",
"e kXuXcX    sXiXcX  cXe   rXuXpXL.  q 7 vXL.cXL.vX$ mXL.L.    e L.e L.cX        q 7 vXL.cXL.vX$ cXpXuXrXcXcX    cXiXsXcXcXcXuXmX",
"L.kXuXwXcX  cX    cXe   rXuXiXe   q L.    L.e cXcXcX$         kXcXcXcX~       q L.    L.e cXcXcXmXe iXuXrXcXcX  cX  cXcXcXwXuXmX",
"L.pXuXrXwXL.        cXrXiXiXsXsX  L.    6 vXcXcXcXL.mXL.    pXpXuXcXcXe ~ sX  L.    6 vXcXcXcXL.cXsXsXiXiXrXsXcXe e e pXwXrXuXL.",
"L.pXpXiXrXwXrXrXrXrXuXuXiXsXsX          L.sXiXiXkXcX        pXsXQ Q pXkXsX          L.sXiXiXkXcX    sXsXiXuXuXrXrXrXrXwXrXiXpXL.",
"L.pXkXpXiXrXrXrXuXuXuXiXsXsX            cXsXkXiXkXcX        pXQ Q Q Q ~ pXkX        cXsXkXiXkXcX      sXsXiXuXuXuXrXrXrXiXpXe L.",
"L.pXkXpXiXiXiXiXiXiXiXsXcXcXpXpXpXpXpXpXpXpXpXpXpXpXpXpXpXpXpXpXpXpXpXpXpXpXpXpXpXpXpXpXpXpXpXpXpXpXcXcXcXsXiXiXiXiXiXiXiXpXe L.",
"L.e pXuXuXiXiXiXe sX    e e e e e e e e e e e e e e e e e e e e e e e e e e e e e e e e e e e e e e e e cXcXcXsXe iXiXiXuXuXpXL.",
"L.kXuXuXsXsXcXcXcX      cXcXcXcXcXcXcXcXcXcXcXcXcXcXcXcXcXcXcXcXcXcXcXcXcXcXcXcXcXcXcXcXcXcXcXcXcXcXcXcX      cXcXcXcXsXsXuXuXL.",
"L.pXuXiX                                                                                                            cXcXcXiXuXmX",
"L.pXuXe cX  cXcXcXcXcX                                                                                      cXcXcXcXe cXcXe uXmX",
"L.pXuXe cXcXiXiXrXwXsXcX                cXe L.L.cXcX                                        cXcX          cXsXwXrXiXiXe cXe uXmX",
"L.kXuXiXe uXiXe e rXwXcX                cXvXCXSXy.cX                                      cXpXkXcX        cXwXrXe e iXuXe iXuXL.",
"e e e uXiXe e cXcXiXrXcX                cXL.y.CXmXcX                                      cXe kXcXcXcX      rXiX    sXe iXuXpXL.",
"L.cXe e e cX    cXiXiXcX                cXcXq L.e e cX                                cXcXcXcXcXcXpXe cX    iXiX      e e e e L.",
"L.pX        iX  e e iXcXcXcX          cXcX  cXvXCXu.e cX                cXcXcXcX      cXnXkXcXpXcXe e cXe cXiXe     iX    cXpXL.",
"L.pXe cXcX  sXiXiXiXe pXu.sX        cXe nX5 5 5 v 6 vXcX                kXpXnXcXcXcXcXcXpXe e cXcXcXcXcXe cXe iXiXiXsX    e pXL.",
"L.pXsXcXcX        cXyX5XC uXsX      cXe 7 4 v v J 7 mXcX                cXe kXpXcXcXkXcXpXcXcXpXkXcXcXcXcX      e e cX    e pXL.",
"L.pXsXcXcX  cXg d 7XD :XD F sX      cXe mXq nX$ 6 nXmXcX                  cXcXe cXcXe kX  kXe e     cXkXpXcXcXcX          e pXL.",
"L.pXsXcXcX  e F F F D A F F sX      cXmXmXq nXvXbXnXmXcX                cXcXcXcXpXcXe cX  e cXcXpXpXcXpXkXcXcX  cXcX      e pXL.",
"L.pXsXcXcX  u.yXF F D D F pXsX      cXcXmXq nXnXvXq L.cX            cXcXsXiXpXpXcXcX    cXcXcXe               cX          e pXL.",
"L.pXe cXcX  cXL.y.vXu.L.cXcXe cXcXcXcXcXL.y.vXu.L.cXcXcXcXcXcXcXcXe sXiXsXcXcX      pXcXcX    cXcX  cX        cX          e pXL.",
"L.pXe uXuXuXuXuXyXyXyXuXuXuXuXuXuXuXuXyXyXyXyXyXuXuXuXuXuXuXuXyXrXrXyXyXuXuXyXyXyXyXyXyXrXyXyXuXyXyXuXuXuXuXyXuXyXyXuXuXuXpXpXL.",
"L.pXe e e e e e kXkXkXe e e e e e e e kXkXkXkXkXe e e e e e e kXpXpXkXkXe e kXkXkXkXkXkXkXkXkXkXkXkXe e e e e kXkXe e e e e pXL.",
"L.pXe cXcXcXcXcXcXcXcXcXcXcXcXcXcXcXcXcXcXcXcXcXcXcXcXcXcXcXcXcXcXcXcXcXcXcXcXcXcXcXcXcXcXcXcXcXcXcXcXcXcXcXcXcXcXcXcXcXcXe pXL.",
"L.pXsXcXcX                                                                                                              cXsXpXL.",
"L.pXsXcXcX                                                                                                              cXsXpXL.",
"L.pXsXcXcX                                                                                                              cXsXpXL.",
"L.pXsXcXcX                                                    cX                                                        cXsXpXL.",
"L.pXsXcXcX                            kXiXyXeX      sXiX        cXsX                            q vXSXCXbX              cXsXpXL.",
"L.pXsXcXcX                      cX  cXiXuXkXiXuXiXuXsX          sX              cX                cXe e e               cXsXpXL.",
"L.pXsXcXcX    cXsXpX    cXsX      cXcXrXwXuXsXsXsX          sXcXsXpX    cXcX      cX            u.e L.mXmXL.            cXsXpXL.",
"L.pXsXcXcX  cXsXe cXe sXcX        cXsXiXkXwX              kXcXsXe cXe sXcX        cX          L.cX  cXq 7 vXL.          cXsXpXL.",
"L.pXsXcXcXcXcXsXcXyX          cX  cXsXkXrXuXuX  uXwXkXkXuXiXcXsXcXyXcXsXcX    cX        cX  mXsXsXiXuXSXCXCXSXy.        cXsXpXL.",
"L.pXsXcXcX  cXcXcXuXpXuXpXuXuX    sXcXsXkXrXwXyXrXuXyXeXeX  cXcXiXsXpXuXpXuXuX    sX      e yXF F F F D 6 qXF F L.      cXsXpXL.",
"L.pXsXcXcX    cXpXsXe cXcXcXe uXsXcX  sXyXiXyXuXkXsXkXsXuXeXyXiXkXsXe cXcXcXe uXsXcX      u.uXg F F F F F F F uXq       cXsXpXL.",
"L.pXsXcXcX        cXcXe                   cXsXkXuX                cXcXe                     y.sXk j j j j k pXq         cXsXpXL.",
"L.pXe cXcXcXcXcXcXcXcXcXcXcXcXcXcXcXcXcXcXcXcXcXsXcXcXcXcXcXcXcXcXcXcXcXcXcXcXcXcXcXcXcXcXcXcXmXe u.u.L.mXL.cXcXcXcXcXcXcXe pXL.",
"L.pXpXe uXuXuXuXuXyXyXyXuXuXuXuXuXuXuXuXyXyXyXyXyXuXuXuXuXuXuXuXyXrXrXyXyXuXuXyXyXyXyXyXyXrXyXyXuXyXyXuXuXuXuXyXuXyXyXkX  sXpXL.",
"L.pXe e sXe e e e kXkXkXe e e e e e e e kXkXkXkXkXe e e e e e e kXpXpXkXkXe e kXkXkXkXkXkXkXkXkXkXkXkXe e e e e kXe e e e sXpXL.",
"L.pXe cXcXcXcXcXcXcXcXcXcXcXcXcXcXcXcXcXcXcXcXcXcXcXcXcXcXcXcXcXcXcXcXcXcXcXcXcXcXcXcXcXcXcXcXcXcXcXcXcXcXcXcXcXcXcXcXcXcXe pXL.",
"L.pXsXcXcX                            pXkX                                                            e     cX    cX  cXcXsXpXL.",
"L.pXsXcXcX                          cXe kX                cX$ vXcXcX  L.                            cX    cX    iXpXcX  cXsXpXL.",
"L.pXsXcXcX    cXkXiXeX    sXiX        sXcX  pXe         e q cXq L.vXvXL.L.                  cX    cXcXe cX  iXpXcXcX  cXcXsXpXL.",
"L.pXsXcXcX    iXiXuXiXuXiXsX      nXkX  pX  e e             L.L.cXL.cX  L.L.              e     mX  e cXcXsXpXcXcX      cXsXpXL.",
"L.pXsXcXcX  cXyXiXkXpXnX        kXpXe   cXcXcX          q 7 vXL.cXL.vX$ mXL.L.        cX  q   cX  L.cXiXpXe cXcXL.L.cXcXcXsXpXL.",
"L.pXsXcXcX  cXiXkXrXe kXpXkXcXkXiXpX  cXpXkX          q L.    L.e cXcXcX$             e mX  L.  cXiXcXkXe   L.  cX      cXsXpXL.",
"L.pXsXcXcX    kXsXkXwXyXe yXeXe kX  kXe e       kXpX  L.    6 vXcXcXcXL.mXL.          cXe cXcXpXL.e sXcXcXcX  cX  cXcX  cXsXpXL.",
"L.pXsXcXcX      cXcXkXiX  pX  e cXiXe cXcXpXpXcXpXkX        L.sXiXiXkXcX            cXe cXiXcXcXkXcX  cX    cX  cX      cXsXpXL.",
"L.pXsXcXcX      cXsXiXpXpXcXcX    cXcX  e                   cXsXkXiXkXcX            sXcXsXsXL.e   e     cXcX            cXsXpXL.",
"L.pXe cXcX    sXiXsXcXcX  cXcXpXcXcX    cXcX                  cXcXcXcX              cXcXsX  cX  cX  cX      cXcX        cXe pXL.",
"L.pXe uXuXuXuXuXyXyXyXuXuXuXuXuXuXuXuXyXyXyXyXyXuXuXuXuXuXuXuXyXrXrXyXyXuXuXyXyXyXyXyXyXrXyXyXuXyXyXuXuXuXuXyXuXyXyXkX  e pXpXL.",
"L.pXe e e sXsXsXe e e sXsXsXsXsXsXsXsXe e e e e sXsXsXsXsXsXsXe e e e e sXsXe e e e e e e e e e e e sXsXsXsXsXe e sXcXcXe e pXL."
};
